<svg xmlns="http://www.w3.org/2000/svg" xmlns:xlink="http://www.w3.org/1999/xlink" width="193.5" height="121.669" viewBox="0 0 193.5 121.669">
  <defs>
    <clipPath id="clip-path">
      <rect width="193.5" height="121.669" fill="none"/>
    </clipPath>
  </defs>
  <g id="Component_38_1" data-name="Component 38 – 1" transform="translate(0 0)" clip-path="url(#clip-path)">
    <path id="Path_238" data-name="Path 238" d="M2857.035,2697.032a4.2,4.2,0,0,1-2.121-4.014c-.109-8.962,3.858-15.751,11.109-20.774.9-.623,1.858-1.158,2.773-1.759.574-.376.929-.234,1.191.471-1.523,1.934-3.105,3.869-4.6,5.868a26.978,26.978,0,0,0-3.913,7.7,6.586,6.586,0,0,0,.181,5.177,6.094,6.094,0,0,0,3.183-2.335,92.236,92.236,0,0,0,9.544-20.064c.291-.809.618-1.609.832-2.438a7.81,7.81,0,0,0,.021-1.673c-1.114.755-1.977,1.345-2.845,1.927a12.89,12.89,0,0,1-4.389,2.156c-2.785.606-4.9-1.482-4.007-4.206a63.9,63.9,0,0,1,5.485-12.161,2.433,2.433,0,0,1,2.533-1.344c.868.11,1.722.328,2.755.533-2.156,3.506-4.51,6.721-3.969,10.985,2.018-.6,4-1.239,5.3-3.13,1.551-2.251,3.2-4.433,4.761-6.681a4.648,4.648,0,0,1,3.921-2.387c1.757-.005,2.229.76,1.509,2.385-2.008,4.536-3.992,9.082-5.986,13.623-2.1,4.792-4.1,9.637-6.343,14.361a54.526,54.526,0,0,1-8.46,12.635,20.772,20.772,0,0,1-6.581,5.148Z" transform="translate(-2693.107 -2575.362)" fill="#fcc03a"/>
    <path id="Path_239" data-name="Path 239" d="M2675.987,2369c1.07-.706,2.1-1.481,3.222-2.095a10.355,10.355,0,0,1,2.782-1.089c1.989-.418,3.4.929,3.506,3.155.038.766.192,1.526.293,2.287a23.047,23.047,0,0,1-9.288,14.053,8.413,8.413,0,0,1-4.157,1.271,10.806,10.806,0,0,1,.736-1.32c1.505-1.9,3.046-3.773,4.55-5.674a14.51,14.51,0,0,0,2.468-5.4,6.08,6.08,0,0,0-.152-1.981,2.883,2.883,0,0,0-2.509.987,12.957,12.957,0,0,0-1.634,2.407c-2.718,5.847-5.368,11.724-8.069,17.58a3,3,0,0,0-.224,2.558c1.548-1.169,3.084-2.365,4.663-3.5.854-.615,1.769-1.15,2.681-1.678a4.972,4.972,0,0,1,1.3-.519c1.143-.281,2.394-.647,3.333.3a3.784,3.784,0,0,1,.967,4.027c-1.459,3.956-3,7.885-4.66,11.758-.867,2.02-2.713,2.623-4.927,1.831a21.144,21.144,0,0,1,.638-2.537c.82-2.153,1.736-4.27,2.585-6.412a3.524,3.524,0,0,0,.09-3.021,3.413,3.413,0,0,0-3.149,1.253,115.12,115.12,0,0,0-9.049,11.677c-1.36,2.111-3.024,2.427-5.7,1.3.16-.458.305-.932.487-1.393q3.644-9.207,7.292-18.414c.128-.324.207-.669.309-1l6.36-13.625Q2673.359,2372.389,2675.987,2369Z" transform="translate(-2510.539 -2315.121)" fill="#fcc03a"/>
    <path id="Path_240" data-name="Path 240" d="M2316.391,2616.758c.455-.725.964-1.421,1.353-2.18,1.271-2.483,2.31-2.948,5.185-2.169q-.951,2.5-1.9,4.988c-.006.029-.013.059-.02.088l0-.1c.614-.186,1.235-.352,1.842-.561a30.662,30.662,0,0,1,3.609-1.246,4.317,4.317,0,0,1,4.5,1.779,20.911,20.911,0,0,1-.322,6.525,11.048,11.048,0,0,1-3.159,5.905c-1.133,1.075-2.313,2.109-3.543,3.07a8.87,8.87,0,0,1-5.418,1.923,7.494,7.494,0,0,0-7.137,4.49c-1.25,2.768-2.226,5.662-3.266,8.522-1.374,3.779-2.689,7.58-4.039,11.368a10.053,10.053,0,0,1-.565,1.287c-.533,1.019-1.04,1.168-2.1.659a4.03,4.03,0,0,1-2.042-5.254c.828-2.4,1.794-4.75,2.821-7.069q6.828-15.431,13.726-30.833C2316.1,2617.562,2316.235,2617.156,2316.391,2616.758Zm-.7,12.631c.146,1.538.4,1.8,1.795,2.159a3.811,3.811,0,0,0,3.122-.593,11.633,11.633,0,0,0,5.287-8.487c.328-2.133-.986-2.872-2.888-2.3a1.912,1.912,0,0,0-.835.606c-1.933,2.3-3.865,4.61-5.744,6.958A7.025,7.025,0,0,0,2315.692,2629.389Z" transform="translate(-2182.228 -2541.525)" fill="#fcc03a"/>
    <path id="Path_241" data-name="Path 241" d="M1853.81,2401.137l4.469-5.151a21.569,21.569,0,0,1,2.677-.088c1.157.1,1.575.766,1.194,1.881a22.824,22.824,0,0,1-1.152,2.558c-.629,1.292-1.285,2.572-2.015,4.026,1.856,0,3.555.037,5.251-.012a3.866,3.866,0,0,1,3.023,1.132,3.2,3.2,0,0,1-3.119,2.14c-1.016.035-2.035.062-3.049.011a4.089,4.089,0,0,0-4.19,2.434c-2.842,6-5.75,11.968-8.322,18.081-.961,2.285-1.063,4.932-1.566,7.413-.239,1.18-.5,2.356-.795,3.75-1-.546-1.91-.97-2.732-1.524a1.7,1.7,0,0,1-.58-1.084,13.69,13.69,0,0,1,.523-7.376q3.623-8.7,7.226-17.409c.432-1.042.844-2.092,1.321-3.275a8.7,8.7,0,0,1-4.883-1.66,11.111,11.111,0,0,1,3.47-3.552C1851.659,2402.689,1852.727,2401.9,1853.81,2401.137Z" transform="translate(-1762.703 -2342.818)" fill="#fcc03a"/>
    <path id="Path_242" data-name="Path 242" d="M2209.884,2648.722a2.879,2.879,0,0,1-.468,2.577c-1.572,2.281-2.961,4.689-4.57,6.941a11.985,11.985,0,0,1-7.128,5c-6.129,1.427-10.758-2.793-9.472-8.931a13.648,13.648,0,0,1,9.7-10.878,11.435,11.435,0,0,1,5.905-.074c1.824.389,2.6,1.4,2.876,3.507.224,1.689.224,1.688,1.883,1.776C2209.034,2648.657,2209.454,2648.692,2209.884,2648.722Zm-16.729,8.09a3.135,3.135,0,0,0,3.659,3.281,5.379,5.379,0,0,0,3.6-2.422,2.586,2.586,0,0,0,.347-2.447c-.351-.9-1.082-.951-1.917-.965-.967-.017-1.256-.521-.877-1.4a4.8,4.8,0,0,1,2.041-2.49,3.635,3.635,0,0,0,1.769-2.509,1.181,1.181,0,0,0-.763-1.5,3.155,3.155,0,0,0-3.494.57C2194.49,2649.369,2193.418,2652.714,2193.154,2656.813Z" transform="translate(-2080.155 -2569.96)" fill="#fcc03a"/>
    <path id="Path_243" data-name="Path 243" d="M1957.191,2650.422a9.7,9.7,0,0,0,4.16-2.308,22.9,22.9,0,0,1,2.479-1.76,4.806,4.806,0,0,1,4.758-.026c-2.166,3.841-3.116,8.25-6.061,11.788a6.917,6.917,0,0,1-2.5-4.584,7.088,7.088,0,0,0-4.121,2.515,28.389,28.389,0,0,0-5.025,8,2.689,2.689,0,0,1-3.1,1.94,1.739,1.739,0,0,1-1.585-2.595c2.187-4.964,4.421-9.907,6.589-14.879.647-1.483,1.923-1.869,3.285-2.079.918-.143,1.841,1.32,1.592,2.4C1957.558,2649.313,1957.387,2649.78,1957.191,2650.422Z" transform="translate(-1857.693 -2572.452)" fill="#fcc03a"/>
    <g id="Group_334" data-name="Group 334">
      <path id="Path_244" data-name="Path 244" d="M854.091,1800.307a19.092,19.092,0,0,0,.425-1.985q1.19-10.959,2.34-21.92c.265-2.526.49-5.058.735-7.587a8.152,8.152,0,0,1,.115-.93c.456-2.117,1.581-2.775,3.684-2.177,3.739,1.065,6.49,3.208,7.151,7.211a21.914,21.914,0,0,1,.023,5.6c-.626,6.536-1.368,13.061-2.057,19.591-.18,1.71-.417,3.422-.472,5.137-.066,2.066-.034,4.141.081,6.206.091,1.641.972,2.17,2.572,1.658,2.452-.784,4.889-1.614,7.334-2.417a10.1,10.1,0,0,1,1.02-.264,4.633,4.633,0,0,1,5.427,6.01,3.3,3.3,0,0,1-2.234,2.246,58.745,58.745,0,0,1-14.427,2.919,8.718,8.718,0,0,1-6.765-2.669,16,16,0,0,1-4.634-11.664c-.012-.743.035-1.487,0-2.229-.01-.21-.208-.413-.32-.618Q854.091,1801.364,854.091,1800.307Z" transform="translate(-854.09 -1763.42)" fill="#fff"/>
      <path id="Path_245" data-name="Path 245" d="M2421.525,1992.95a11.86,11.86,0,0,1-7.861-8.486,5.425,5.425,0,0,1,1.411-5.307c1.064-1.147,2.151-2.277,3.286-3.354a2.821,2.821,0,0,0,.648-3.787,6.956,6.956,0,0,1-.709-5.746,6.253,6.253,0,0,1,1.722-2.737c.142-.135.282-.272.422-.407,1.987-1.917,1.986-2.554.115-4.532-3.216-3.4-4.167-7.547-3.717-12.043a17.747,17.747,0,0,1,5.858-11.678c1.922-1.753,3.593-1.965,5.868-.674.984.559,1.918,1.207,2.868,1.826a6.208,6.208,0,0,0,6.435.534,11.523,11.523,0,0,1,3.625-.78,2.486,2.486,0,0,1,2.647,1.743,20.848,20.848,0,0,1,.987,3.364,2.165,2.165,0,0,1-1.392,2.783c-2.964,1.244-2.449,2.214-2.038,4.64a49.761,49.761,0,0,1,.918,5.893c.284,6.08-3.567,10.183-9.662,10.51a16.351,16.351,0,0,0-2.331.235,1.622,1.622,0,0,0-1.01,2.816,9.6,9.6,0,0,0,2.945,2.25,32.821,32.821,0,0,0,5.756,1.933c3.959.931,7.155,2.851,9.237,6.427q-3.179,6.812-6.359,13.625l-5.09,1.551a4.319,4.319,0,0,0-4.5-1.779,30.745,30.745,0,0,0-3.61,1.246c-.606.209-1.226.375-1.841.561l.015.011,1.9-4.988c-2.875-.779-3.913-.314-5.185,2.169C2422.489,1991.529,2421.979,1992.226,2421.525,1992.95Zm16.535-12.537c-2.313-.86-4.65-1.71-6.972-2.6a2.21,2.21,0,0,0-2.619.709,21.466,21.466,0,0,0-4.39,6.87,8.885,8.885,0,0,0-.284,1.1,19.323,19.323,0,0,0,12.324-2.93A3.627,3.627,0,0,0,2438.06,1980.413Zm-8.665-22.835c2.453-1.585,2.667-1.862,3.3-4.35a17.954,17.954,0,0,0-.517-9.914,2.471,2.471,0,0,0-1.411-1.536c-.833-.174-1.413.646-1.809,1.394a3.862,3.862,0,0,0-.237.658c-.669,2.156-1.34,4.312-2,6.472a2.553,2.553,0,0,0-.135.917C2426.781,1953.624,2427.073,1956,2429.395,1957.578Z" transform="translate(-2287.362 -1917.718)" fill="#fff"/>
      <path id="Path_246" data-name="Path 246" d="M1664.3,1798.117a7.253,7.253,0,0,1-4.207-2.145,20.377,20.377,0,0,1-1.735-2.783c-.294.115-.785.3-1.271.5-1.519.614-3.009,1.312-4.559,1.831a9.671,9.671,0,0,1-10.3-2.308,17.88,17.88,0,0,1-5.538-10.988,22.716,22.716,0,0,1,6.214-19.4,18.759,18.759,0,0,1,6.352-4.333,6.428,6.428,0,0,1,6.923,1.008c.154.122.3.251.451.376s.3.239.608.491c.177-1.152.393-2.158.477-3.176.413-4.949.79-9.9,1.186-14.849a5.065,5.065,0,0,1,.146-.922c.392-1.45,1.185-1.912,2.636-1.448a11.807,11.807,0,0,1,4.883,2.916,6.282,6.282,0,0,1,1.951,4.638c-.07,2.691-.286,5.383-.545,8.064-.831,8.613-1.468,17.237-.761,25.883.313,3.847,1.025,7.662,1.557,11.491Q1666.532,1795.543,1664.3,1798.117Zm-7.581-31.786a4.724,4.724,0,0,0-1.511.228,18.515,18.515,0,0,0-3.375,2.265,15.709,15.709,0,0,0-4.425,8.867,14.63,14.63,0,0,0,.373,7.64,1.6,1.6,0,0,0,2.5.978,31.446,31.446,0,0,0,3.795-2.725,6.882,6.882,0,0,0,2.516-5.118c.089-3.28.094-6.562.131-9.844C1656.724,1767.928,1656.718,1767.235,1656.718,1766.332Z" transform="translate(-1573.192 -1739.8)" fill="#fff"/>
      <path id="Path_247" data-name="Path 247" d="M1242.105,1940.979c.351-.882.613-1.7,1-2.464.743-1.48,1.749-2.007,3.266-1.391a34.118,34.118,0,0,1,4.957,2.576,3.226,3.226,0,0,1,1.491,3.135,26.535,26.535,0,0,1-.48,3.472,48.261,48.261,0,0,0,1.3,24.545c.351,1.157.781,2.289,1.161,3.438a14.7,14.7,0,0,1,.5,1.683c.3,1.491-.269,2.385-1.778,2.568a9.9,9.9,0,0,1-9.1-3.247q-.468-.523-.942-1.042c-.024-.027-.07-.034-.143-.067-.917.525-1.827,1.126-2.8,1.589-4.286,2.04-8.46,2.115-12.31-1a11.772,11.772,0,0,1-2.508-2.765,24.519,24.519,0,0,1-3.954-14.8,18.968,18.968,0,0,1,5.561-12.213,31.711,31.711,0,0,1,7-5.475,4.787,4.787,0,0,1,5.218.039C1240.367,1940.059,1241.234,1940.5,1242.105,1940.979Zm-.8,11.149h.024c0-.937.074-1.881-.017-2.81-.15-1.531-1.148-2.125-2.433-1.3a10.243,10.243,0,0,0-2.79,2.6,18.787,18.787,0,0,0-3.392,12.734,12.715,12.715,0,0,0,1.144,3.89,1.638,1.638,0,0,0,2.432.881c2.421-1.176,5.268-3.448,5.059-7.578C1241.192,1957.749,1241.308,1954.935,1241.308,1952.127Z" transform="translate(-1191.986 -1920.934)" fill="#fff"/>
      <path id="Path_248" data-name="Path 248" d="M2825.47,1974.906a21.484,21.484,0,0,1-6.551-15.807c.139-7.812,3.768-13.726,10.2-18.115a9.015,9.015,0,0,1,8.021-1.08,12.767,12.767,0,0,1,2.141,1.083,13.024,13.024,0,0,0,.6-1.333c.889-2.744,1.857-3.228,4.533-2.151a23.02,23.02,0,0,1,2.737,1.321c2.547,1.442,3.245,2.967,2.75,5.835-.358,2.077-.8,4.143-1.059,6.232a46.185,46.185,0,0,0,1.584,18.672c.475,1.647,1.084,3.255,1.6,4.891a10.615,10.615,0,0,1,.507,2.156,1.614,1.614,0,0,1-1.75,1.987,40.865,40.865,0,0,1-5.925-.609,5.12,5.12,0,0,1-3.675-3.019c-.1-.2-.211-.4-.344-.649l-5.56,2.842c-.1-.763-.255-1.522-.293-2.287-.111-2.226-1.518-3.574-3.507-3.155a10.353,10.353,0,0,0-2.782,1.088C2827.572,1973.425,2826.54,1974.2,2825.47,1974.906Zm13.019-22.991h.047c0-.742.055-1.489-.011-2.226-.168-1.871-1.2-2.439-2.77-1.391a9.818,9.818,0,0,0-2.5,2.424,18.753,18.753,0,0,0-3.361,13.091,11.6,11.6,0,0,0,1.116,3.54,1.61,1.61,0,0,0,2.215.986c2.391-1.061,5.43-3.426,5.287-7.311C2838.4,1957.994,2838.489,1954.953,2838.489,1951.915Z" transform="translate(-2660.021 -1921.027)" fill="#fff"/>
      <path id="Path_249" data-name="Path 249" d="M2086.268,1962.4c-.1,6.4-2.127,11.6-6.334,15.863a10.043,10.043,0,0,1-12.262,2.089,20.383,20.383,0,0,1-11.609-15.539c-1.446-8.654,1-16.086,7.914-21.787a10.769,10.769,0,0,1,2.272-1.43,4.255,4.255,0,0,1,5,.759,18.05,18.05,0,0,1,2.156,2.464,9.852,9.852,0,0,0,6.1,4.042,6.585,6.585,0,0,1,4.446,3.541,19.617,19.617,0,0,1,2.056,7.039C2086.162,1960.561,2086.209,1961.7,2086.268,1962.4Zm-10.036-.95a3.5,3.5,0,0,0-.061-.571c-.774-2.9-1.544-5.8-2.348-8.692a3.5,3.5,0,0,0-.6-1.129,1.239,1.239,0,0,0-2.016-.253,7.546,7.546,0,0,0-1.6,1.991,25.36,25.36,0,0,0-3.037,14.567,11.573,11.573,0,0,0,1.951,5.463c.911,1.3,2,1.392,3.164.323a7.469,7.469,0,0,0,.991-1.152C2074.931,1968.848,2075.769,1965.219,2076.233,1961.45Z" transform="translate(-1958.493 -1924.829)" fill="#fff"/>
      <path id="Path_250" data-name="Path 250" d="M2570.225,2677.87c0,.033,0,.066,0,.1.006-.029.014-.058.02-.088Z" transform="translate(-2431.438 -2602.01)" fill="#fff"/>
    </g>
  </g>
</svg>
