<?xml version="1.0" encoding="utf-8"?>
<!-- Generator: Adobe Illustrator 23.0.3, SVG Export Plug-In . SVG Version: 6.00 Build 0)  -->
<svg version="1.1" id="Слой_1" xmlns="http://www.w3.org/2000/svg" xmlns:xlink="http://www.w3.org/1999/xlink" x="0px" y="0px"
	 viewBox="0 0 764.4 349.8" style="enable-background:new 0 0 764.4 349.8;" xml:space="preserve">
<style type="text/css">
	.st0{fill:#FBBF39;}
	.st1{fill:#FCC039;}
	.st2{fill:#FFFFFF;}
</style>
<g id="logo-20" transform="translate(-2608.319 -4405.771)">
	<g id="Group_337" transform="translate(2608.319 4405.771)">
		<path id="Path_298" class="st0" d="M492.2,349.8c-4.6-2.5-6-6.7-6.1-11.5c-0.3-25.8,11.1-45.3,31.9-59.7c2.6-1.8,5.3-3.3,8-5.1
			c1.7-1.1,2.7-0.7,3.4,1.4c-4.4,5.6-8.9,11.1-13.2,16.9c-4.9,6.7-8.7,14.2-11.2,22.1c-1.7,5-1.9,9.9,0.5,14.9
			c3.6-1.4,6.8-3.2,9.1-6.7c11.9-17.9,20.2-37.5,27.4-57.7c0.8-2.3,1.8-4.6,2.4-7c0.3-1.3,0.1-2.7,0.1-4.8c-3.2,2.2-5.7,3.9-8.2,5.5
			c-3.9,2.6-7.9,5.2-12.6,6.2c-8,1.7-14.1-4.3-11.5-12.1c4-12.2,9.3-23.9,15.8-35c1.6-2.8,4-4.3,7.3-3.9c2.5,0.3,4.9,0.9,7.9,1.5
			c-6.2,10.1-13,19.3-11.4,31.6c5.8-1.7,11.5-3.6,15.2-9c4.5-6.5,9.2-12.7,13.7-19.2c2.8-4,6.1-6.8,11.3-6.9c5.1,0,6.4,2.2,4.3,6.9
			c-5.8,13-11.5,26.1-17.2,39.2c-6,13.8-11.8,27.7-18.2,41.3c-6.4,13.2-14.6,25.4-24.3,36.3c-5.2,6.2-11.7,11.2-18.9,14.8H492.2z"/>
		<path id="Path_299" class="st0" d="M496.6,154.9c3.1-2,6-4.3,9.3-6c2.5-1.4,5.2-2.5,8-3.1c5.7-1.2,9.8,2.7,10.1,9.1
			c0.1,2.2,0.6,4.4,0.8,6.6c-4,16.7-12.5,30.4-26.7,40.4c-3.3,2.3-7.1,3.1-12,3.6c0.6-1.3,1.3-2.6,2.1-3.8
			c4.3-5.5,8.8-10.8,13.1-16.3c3.6-4.6,5.6-10,7.1-15.5c0.5-1.7-0.3-3.8-0.4-5.7c-3.3,0-5.6,0.8-7.2,2.8c-1.8,2.1-3.4,4.4-4.7,6.9
			c-7.8,16.8-15.4,33.7-23.2,50.5c-1.1,2.4-1.7,4.8-0.6,7.4c4.5-3.4,8.9-6.8,13.4-10.1c2.5-1.8,5.1-3.3,7.7-4.8
			c1.2-0.7,2.4-1.2,3.7-1.5c3.3-0.8,6.9-1.9,9.6,0.9c3.1,3,4.2,7.5,2.8,11.6c-4.2,11.4-8.6,22.7-13.4,33.8
			c-2.5,5.8-7.8,7.5-14.2,5.3c0.5-2.5,1.1-4.9,1.8-7.3c2.4-6.2,5-12.3,7.4-18.4c1.4-3.6,1.4-4.5,0.3-8.7c-3.6-0.3-6.5,0.5-9.1,3.6
			c-9.1,10.8-18.3,21.6-26,33.6c-3.9,6.1-8.7,7-16.4,3.7c0.5-1.3,0.9-2.7,1.4-4c7-17.6,14-35.3,21-52.9c0.4-0.9,0.6-1.9,0.9-2.9
			c6.1-13.1,12.2-26.1,18.3-39.2C486.5,167.9,491.6,161.4,496.6,154.9z"/>
		<path id="Path_300" class="st1" d="M406.7,216.3c1.3-2.1,2.8-4.1,3.9-6.3c3.7-7.1,6.6-8.5,14.9-6.2c-1.8,4.8-3.6,9.6-5.5,14.3
			c0,0.1,0,0.2-0.1,0.3c0-0.1,0-0.2,0-0.3c1.8-0.5,3.6-1,5.3-1.6c3.5-1.2,6.8-2.8,10.4-3.6c5.2-1.1,9.6,0.8,12.9,5.1
			c0.7,6.3,0.4,12.6-0.9,18.8c-1.2,6.5-4.4,12.4-9.1,17c-3.3,3.1-6.6,6.1-10.2,8.8c-4.4,3.5-9.9,5.5-15.6,5.5
			c-9.3,0.2-16.6,4.3-20.5,12.9c-3.6,8-6.4,16.3-9.4,24.5c-3.9,10.9-7.7,21.8-11.6,32.7c-0.5,1.3-1,2.5-1.6,3.7
			c-1.5,2.9-3,3.4-6,1.9c-5.6-2.7-8.2-8.5-5.9-15.1c2.4-6.9,5.2-13.7,8.1-20.3c13.1-29.6,26.2-59.1,39.5-88.6
			C405.8,218.6,406.2,217.4,406.7,216.3z M404.7,252.6c0.4,4.4,1.1,5.2,5.2,6.2c3.1,0.8,6.4,0.1,9-1.7c9-5.7,13.7-14.3,15.2-24.4
			c0.9-6.1-2.8-8.3-8.3-6.6c-0.9,0.4-1.8,1-2.4,1.7c-5.6,6.6-11.1,13.2-16.5,20C405.7,249.1,405.3,251,404.7,252.6L404.7,252.6z"/>
		<path id="Path_301" class="st0" d="M282.9,167.6c4.3-4.9,8.6-9.9,12.8-14.8c2.6-0.2,5.1-0.3,7.7-0.3c3.3,0.3,4.5,2.2,3.4,5.4
			c-0.9,2.5-2.1,5-3.3,7.4c-1.8,3.7-3.7,7.4-5.8,11.6c5.3,0,10.2,0.1,15.1,0c3.2-0.2,6.4,1,8.7,3.2c-1.6,4.1-4.7,6-9,6.1
			c-2.9,0.1-5.9,0.2-8.8,0c-5.6-0.3-9.7,2.1-12,7c-8.2,17.2-16.5,34.4-23.9,52c-2.8,6.6-3.1,14.2-4.5,21.3
			c-0.7,3.4-1.4,6.8-2.3,10.8c-2.9-1.6-5.5-2.8-7.8-4.4c-0.9-0.8-1.5-1.9-1.7-3.1c-1-7.2-1.4-14.3,1.5-21.2
			c6.9-16.7,13.9-33.4,20.8-50c1.2-3,2.4-6,3.8-9.4c-5.2-0.3-9.9-1.6-14-4.8c2.5-4.1,5.9-7.6,10-10.2
			C276.7,172.1,279.8,169.8,282.9,167.6z"/>
		<path id="Path_302" class="st0" d="M393.9,226.4c0.8,2.5,0.3,5.3-1.3,7.4c-4.5,6.6-8.5,13.5-13.1,19.9
			c-5.1,7.1-11.7,12.3-20.5,14.4c-17.6,4.1-30.9-8-27.2-25.7c3.2-15.4,12.4-26.4,27.9-31.3c5.6-1.8,11.3-1.4,17-0.2
			c5.2,1.1,7.5,4,8.3,10.1c0.6,4.9,0.6,4.9,5.4,5.1C391.5,226.2,392.7,226.3,393.9,226.4z M345.8,249.7c-0.2,5.7,4.7,10.6,10.5,9.4
			c4.3-0.8,8-3.3,10.3-7c1.5-2,1.9-4.7,1-7c-1-2.6-3.1-2.7-5.5-2.8c-2.8,0-3.6-1.5-2.5-4c1.3-2.9,2.9-5.5,5.9-7.2
			c2.7-1.5,4.5-4.2,5.1-7.2c0.6-1.8-0.4-3.7-2.1-4.3c0,0,0,0-0.1,0c-3.7-1.7-7-0.8-10,1.6C349.7,228.3,346.6,237.9,345.8,249.7
			L345.8,249.7z"/>
		<path id="Path_303" class="st0" d="M307,224.1c5.2-1,8.5-4,12-6.6c2.3-1.8,4.6-3.5,7.1-5.1c4.3-2.4,8.7-2.4,13.7-0.1
			c-6.2,11-9,23.7-17.4,33.9c-4.2-3.7-6.6-7.8-7.2-13.2c-4.7,1-8.9,3.5-11.8,7.2c-5.8,7-11.2,14.3-14.4,23c-1.7,4.3-4.4,5.9-8.9,5.6
			c-4.2-0.3-6.3-3.6-4.6-7.5c6.3-14.3,12.7-28.5,18.9-42.8c1.9-4.3,5.5-5.4,9.4-6c2.6-0.4,5.3,3.8,4.6,6.9
			C308.1,221,307.6,222.3,307,224.1z"/>
		<g id="Group_336">
			<path id="Path_304" class="st2" d="M21,106c0.5-1.9,0.9-3.8,1.2-5.7c2.3-21,4.5-42,6.7-63c0.8-7.3,1.4-14.5,2.1-21.8
				c0.1-0.9,0.2-1.8,0.3-2.7c1.3-6.1,4.5-8,10.6-6.3c10.7,3.1,18.7,9.2,20.6,20.7c0.7,5.3,0.7,10.7,0.1,16.1
				c-1.8,18.8-3.9,37.5-5.9,56.3c-0.5,4.9-1.2,9.8-1.4,14.8c-0.2,5.9-0.1,11.9,0.2,17.8c0.3,4.7,2.8,6.2,7.4,4.8
				c7-2.3,14.1-4.6,21.1-7c1-0.3,1.9-0.6,2.9-0.8c7.2-1.7,14.3,2.8,16,10c0.6,2.4,0.4,4.9-0.4,7.3c-0.9,3.1-3.3,5.5-6.4,6.5
				c-13.6,4.1-27.2,7.8-41.5,8.4c-7.3,0.4-14.4-2.4-19.4-7.7c-9.3-9.2-13.1-20.7-13.3-33.5c0-2.1,0.1-4.3,0-6.4
				c0-0.6-0.6-1.2-0.9-1.8C21,110.1,21,108.1,21,106z"/>
			<path id="Path_305" class="st2" d="M406.7,216.3c-11.6-4.4-19.5-12.2-22.6-24.4c-1.5-5.8,0-10.9,4.1-15.3
				c3.1-3.3,6.2-6.5,9.4-9.6c3.4-3.2,4.2-6.8,1.9-10.9c-3-5.2-3.9-10.6-2-16.5c0.9-3,2.6-5.7,4.9-7.9c0.4-0.4,0.8-0.8,1.2-1.2
				c5.7-5.5,5.7-7.3,0.3-13c-9.2-9.8-12-21.7-10.7-34.6C394.3,70,400.4,58,410,49.3c5.5-5,10.3-5.6,16.9-1.9
				c2.8,1.6,5.5,3.5,8.2,5.2c5.9,3.8,11.9,4.6,18.5,1.5c3.2-1.5,6.9-1.9,10.4-2.2c3.6-0.4,6.3,1.7,7.6,5c1.2,3.1,2.2,6.4,2.8,9.7
				c0.8,3.9-0.3,6.4-4,8c-8.5,3.6-7,6.4-5.9,13.3c0.9,5.6,2.4,11.3,2.6,16.9c0.8,17.5-10.3,29.3-27.8,30.2c-2.2,0.1-4.5,0.3-6.7,0.7
				c-4.3,0.9-5.9,4.9-2.9,8.1c2.4,2.7,5.3,4.9,8.5,6.5c5.3,2.4,10.9,4.2,16.5,5.6c11.4,2.7,20.6,8.2,26.6,18.5
				c-6.1,13.1-12.2,26.1-18.3,39.2c-4.9,1.5-9.8,3-14.6,4.5c-3.3-4.3-7.7-6.2-12.9-5.1c-3.6,0.7-6.9,2.4-10.4,3.6
				c-1.7,0.6-3.5,1.1-5.3,1.6l0,0c1.8-4.8,3.6-9.6,5.5-14.3c-8.3-2.2-11.2-0.9-14.9,6.2C409.4,212.2,408,214.2,406.7,216.3z
				 M454.2,180.2c-6.6-2.5-13.4-4.9-20-7.5c-3.1-1.2-5.4-0.2-7.5,2c-5.4,5.7-9.7,12.4-12.6,19.7c-0.3,1-0.6,2.1-0.8,3.2
				c13.1,1.3,24.6-1.9,35.4-8.4C452,187.5,454.1,184,454.2,180.2L454.2,180.2z M429.3,114.6c7.1-4.6,7.7-5.3,9.5-12.5
				c2.4-9.7,1.4-19.2-1.5-28.5c-0.6-1.8-2.4-4.1-4.1-4.4c-2.4-0.5-4.1,1.9-5.2,4c-0.3,0.6-0.5,1.2-0.7,1.9
				c-1.9,6.2-3.9,12.4-5.7,18.6c-0.3,0.8-0.4,1.7-0.4,2.6C421.8,103.2,422.6,110,429.3,114.6L429.3,114.6z"/>
			<path id="Path_306" class="st2" d="M282.9,167.6c-4.6-0.9-9-2.6-12.1-6.2c-1.9-2.2-3.2-5-5-8c-0.8,0.3-2.3,0.9-3.7,1.4
				c-4.4,1.8-8.6,3.8-13.1,5.3c-11.1,3.7-21.1,1.3-29.6-6.6c-8.9-8.3-14.5-19.5-15.9-31.6c-2.7-21.3,3-40.1,17.9-55.8
				c5.2-5.4,11.4-9.6,18.3-12.5c7.2-3,13.8-1.9,19.9,2.9c0.4,0.3,0.9,0.7,1.3,1.1s0.9,0.7,1.8,1.4c0.5-3.3,1.1-6.2,1.4-9.1
				c1.2-14.2,2.3-28.5,3.4-42.7c0.1-0.9,0.2-1.8,0.4-2.6c1.1-4.2,3.4-5.5,7.6-4.2c5.3,1.6,10.1,4.5,14,8.4c3.6,3.5,5.7,8.3,5.6,13.3
				c-0.2,7.7-0.8,15.5-1.6,23.2c-2.4,24.8-4.2,49.5-2.2,74.4c0.9,11.1,2.9,22,4.5,33C291.5,157.8,287.2,162.7,282.9,167.6z
				 M261.1,76.3c-1.9,0.3-3.3,0.1-4.3,0.7c-3.3,2-6.9,3.9-9.7,6.5c-7.2,6.9-10.9,15.8-12.7,25.5c-1.4,7.4-1.5,14.8,1.1,22
				c1.2,3.4,4.2,4.7,7.2,2.8c3.8-2.3,7.5-5,10.9-7.8c4.4-3.6,7.1-9,7.2-14.7c0.3-9.4,0.3-18.9,0.4-28.3
				C261.1,80.9,261.1,78.9,261.1,76.3L261.1,76.3z"/>
			<path id="Path_307" class="st2" d="M165.1,57.6c1-2.5,1.8-4.9,2.9-7.1c2.1-4.3,5-5.8,9.4-4c4.9,2.1,9.7,4.5,14.3,7.4
				c3.1,1.9,4.7,5.4,4.3,9c-0.2,3.4-0.7,6.7-1.4,10c-5.1,23.9-3.3,47.4,3.7,70.6c1,3.3,2.2,6.6,3.3,9.9c0.6,1.6,1,3.2,1.4,4.8
				c0.9,4.3-0.8,6.9-5.1,7.4c-10.2,1.2-19.1-1.5-26.2-9.3c-0.9-1-1.8-2-2.7-3c-0.1-0.1-0.2-0.1-0.4-0.2c-2.6,1.5-5.3,3.2-8.1,4.6
				c-12.3,5.9-24.3,6.1-35.4-2.9c-2.8-2.2-5.2-4.9-7.2-7.9c-8.2-12.6-12.2-27.5-11.4-42.5c0.7-13.8,6.7-25.2,16-35.1
				c5.9-6.2,12.7-11.5,20.1-15.7c5-3,10-2.9,15,0.1C160.1,55,162.6,56.3,165.1,57.6z M162.8,89.7L162.8,89.7c0.2-2.7,0.2-5.4,0-8.1
				c-0.4-4.4-3.3-6.1-7-3.7c-3.1,2-5.8,4.5-8,7.5c-7.6,10.6-11,23.6-9.7,36.6c0.5,3.9,1.6,7.7,3.3,11.2c1.4,3.2,4.1,4,7,2.5
				c7-3.4,15.1-9.9,14.5-21.8C162.5,105.8,162.8,97.7,162.8,89.7z"/>
			<path id="Path_308" class="st2" d="M496.6,154.9c-12.3-12.6-19.1-27.7-18.8-45.4c0.4-22.5,10.8-39.5,29.3-52.1
				c7.5-5.1,15-5.3,23.1-3.1c2,0.6,3.8,1.9,6.2,3.1c0.6-1.2,1.2-2.5,1.7-3.8c2.6-7.9,5.3-9.3,13-6.2c2.7,1.1,5.3,2.4,7.9,3.8
				c7.3,4.1,9.3,8.5,7.9,16.8c-1,6-2.3,11.9-3,17.9c-2.2,18-0.6,36.3,4.6,53.7c1.4,4.7,3.1,9.4,4.6,14.1c0.7,2,1.2,4.1,1.5,6.2
				c0.3,3.5-1.5,5.9-5,5.7c-5.7-0.2-11.4-0.8-17-1.8c-4.8-0.9-8.4-4.1-10.6-8.7c-0.3-0.6-0.6-1.1-1-1.9c-5.4,2.8-10.7,5.5-16,8.2
				c-0.3-2.2-0.7-4.4-0.8-6.6c-0.3-6.4-4.4-10.3-10.1-9.1c-2.8,0.6-5.5,1.7-8,3.1C502.6,150.6,499.7,152.9,496.6,154.9z M534,88.8
				h0.1c0-2.1,0.2-4.3,0-6.4c-0.5-5.4-3.4-7-8-4c-2.8,1.9-5.2,4.2-7.2,7c-8,11.3-11,24-9.7,37.6c0.5,3.5,1.6,7,3.2,10.2
				c1.4,3,3.9,3.9,6.4,2.8c6.9-3,15.6-9.8,15.2-21C533.8,106.3,534,97.5,534,88.8L534,88.8z"/>
			<path id="Path_309" class="st2" d="M388.3,108c-0.3,18.4-6.1,33.3-18.2,45.6c-9.9,10-22.6,12.3-35.3,6
				c-18.6-9.2-30-24.4-33.4-44.7c-4.2-24.9,2.9-46.2,22.7-62.6c2-1.6,4.2-3,6.5-4.1c5.2-2.4,10.2-1.7,14.4,2.2
				c2.3,2.2,4.4,4.5,6.2,7.1c4.5,6,10,10.1,17.5,11.6c5.8,1.2,9.9,5,12.8,10.2c3.5,6.3,4.9,13.2,5.9,20.2
				C388,102.7,388.1,106,388.3,108z M359.5,105.3c0-0.6-0.1-1.1-0.2-1.6c-2.2-8.3-4.4-16.7-6.8-25c-0.4-1.2-1-2.3-1.7-3.2
				c-1.7-2.2-3.8-2.6-5.8-0.7c-1.9,1.6-3.4,3.6-4.6,5.7c-6.8,13.1-10.3,27-8.7,41.9c0.5,5.6,2.4,11,5.6,15.7c2.6,3.7,5.8,4,9.1,0.9
				c1.1-1,2-2.1,2.8-3.3C355.7,126.5,358.1,116.1,359.5,105.3L359.5,105.3z"/>
			<path id="Path_310" class="st2" d="M420,218.1c0,0.1,0,0.2,0,0.3C420,218.3,420,218.2,420,218.1L420,218.1z"/>
		</g>
	</g>
	<g id="Group_338" transform="translate(3166.98 4448.921)">
		<path id="Path_312" class="st0" d="M132.3,24.2c-0.1,6.8-2,13-4.6,19c-4.9,11.2-11.6,21.3-18.2,31.6c-4.5,6.9-8.9,13.8-13.3,20.8
			c-0.4,0.9-0.7,1.9-0.9,2.9c1.1,0.1,2.3,0.5,3.3,0.2c6.1-1.7,12.3-3.6,18.4-5.4c5.1-1.5,10.1-3,15.3-4.4c3.2-0.9,4.4,0.2,4.5,3.5
			c0.1,2.6-0.8,5.1-2.6,6.9c-2.6,2.8-5.5,5.4-8.7,7.7c-12.2,8.1-25.6,13.4-39.7,16.9c-3.2,0.8-6.7,0.1-9.2-2.1
			c-4.7-3.7-8-8.5-8.6-14.5c-0.3-2.7,0.1-5.4,1.1-7.9c2.5-5.6,5.3-11,8.4-16.2c8-13,16.4-25.6,24.3-38.7c3.4-5.7,6-12,8.7-18.1
			c0.7-1.9,1-3.9,0.9-6c0-2.2-1.2-3.1-3.4-3.2c-3.4-0.1-6.8,0.9-9.7,2.7c-5,3-9.4,7-13,11.7c-7.7,9.5-14.1,19.9-19.1,31
			c-1.7,4.3-6.6,6.3-10.8,4.6c-0.7-0.3-1.4-0.7-2-1.2c-4.9-3.6-7.5-11.3-5.6-17.1c1.8-5.8,5.3-10.7,9.2-15.3
			C68.3,20.1,81.4,9.3,97.8,2.7c5.5-2.2,11.2-3.5,17.1-2.1c9.8,2.3,14.7,9.2,16.7,18.5C132,20.8,132.1,22.6,132.3,24.2z"/>
		<path id="Path_313" class="st0" d="M34.1,0.2c5.9,0.1,7.5,1.4,8.7,7.2c1.1,5.2,0.6,10.5-0.2,15.6c-1.1,6.8-2.5,13.5-4,20.1
			c-0.6,1.9-1.4,3.8-2.5,5.5c-0.9,1.7-2.3,2.1-4.1,1.7c-3.9-0.9-7-3.7-8.4-7.4c-1.1-2.7-1.9-5.5-2.2-8.4c-0.9-8.7-0.3-17.4,1.8-25.9
			C24.6,2.6,28,0.2,34.1,0.2z"/>
		<g>
			<path class="st0" d="M184.8,9.3c0.2,0.3,0.4,0.6,0.5,0.9c1.1,2,1.8,3.9,2.1,5.8c0.3,1.9,0.2,3.9-0.1,6.2
				c-0.3,1.9-0.8,4.1-1.5,6.5c-0.7,2.4-1.5,5.2-2.4,8.5c-0.3,1.1-0.5,2.3-0.8,3.5c-0.2,1.2-0.5,2.4-0.6,3.7
				c-1.1,4.8-2.1,9.5-3.1,14.2c-1,4.7-2,9.3-3,13.8c-1.7,7.9-3.4,15.4-5,22.6c-1.6,7.2-2.9,13.5-4.1,19c0,0.1,0,0.3-0.1,0.5
				s-0.1,0.4-0.1,0.5c-0.8,3.1-1.5,5.4-2.2,6.9c-0.7,1.5-1.9,2.1-3.6,1.8l-1.7-0.1c-0.7-0.2-1.6-0.6-2.7-1.1c-1-0.5-2.3-1.1-3.7-2
				c-0.1-0.1-0.2-0.3-0.4-0.3c-0.2-0.1-0.3-0.1-0.4-0.2c-3-2.4-4.9-4.8-6-7.1c-1-2.4-1.2-5.5-0.6-9.4c0.2-1.6,0.6-3.5,1.2-5.7
				c0.5-2.1,1.2-4.5,1.9-7.1c0.8-2.6,1.8-5.7,2.8-9.4c1.1-3.7,2.1-7.6,3.2-11.9c0.7-2.5,1.4-5,2.1-7.7c0.7-2.6,1.3-5.2,1.9-7.9
				c0.5-1.9,1-3.7,1.4-5.6s0.9-3.7,1.4-5.6c0.3-1,0.5-1.9,0.6-2.7c0.1-0.8,0.2-1.5,0.3-2c0.2-1,0.2-1.8,0.1-2.5
				c-0.1-0.7-0.2-1.1-0.4-1.4c-0.1,0.1-0.3,0.2-0.4,0.2c-0.1,0-0.3,0.1-0.5,0.2c-0.1,0.1-0.3,0.2-0.5,0.3c-0.2,0.1-0.4,0.2-0.5,0.3
				c-0.2,0.1-0.4,0.2-0.6,0.2c-0.2,0-0.4,0-0.6,0l-1.6-0.2c-0.6-0.1-1.4-0.6-2.2-1.4c-0.8-0.8-1.9-2.2-3.1-4.1
				c-1.3-2.4-2.3-4.3-3-5.6c-0.7-1.3-1-2.4-0.8-3.3c0.1-0.6,0.4-1.2,0.8-1.7c0.5-0.5,1-1.1,1.7-1.8c1.4-1.1,2.8-2.2,4.4-3.4
				c1.6-1.2,3.2-2.4,4.9-3.5c1.2-0.7,2.4-1.5,3.6-2.3c1.2-0.8,2.4-1.6,3.6-2.3c0.6-0.4,1.2-0.8,1.7-1.1c0.5-0.3,1.1-0.6,1.5-0.9
				c1.1-0.9,2.1-1.5,2.8-1.8c0.8-0.3,1.5-0.5,2.1-0.4l1.6,0.2c0.9,0.1,1.8,0.7,3,1.8c1.1,1.1,2.5,2.8,4.1,5.1
				C184.4,8.7,184.6,9,184.8,9.3z"/>
		</g>
	</g>
</g>
</svg>
