<svg xmlns="http://www.w3.org/2000/svg" width="764.435" height="349.761" viewBox="0 0 764.435 349.761">
  <g id="logo-20" transform="translate(-2608.319 -4405.771)">
    <g id="Group_337" data-name="Group 337" transform="translate(2608.319 4405.771)">
      <path id="Path_298" data-name="Path 298" d="M3148.367,4786.8c-4.582-2.5-6.037-6.663-6.1-11.533-.313-25.759,11.09-45.281,31.935-59.715,2.588-1.794,5.34-3.327,7.971-5.052,1.655-1.081,2.665-.671,3.423,1.351-4.382,5.558-8.929,11.124-13.232,16.864a77.5,77.5,0,0,0-11.246,22.136c-1.69,5.035-1.864,9.878.523,14.878,3.65-1.368,6.8-3.18,9.147-6.715,11.882-17.937,20.2-37.546,27.44-57.678.836-2.326,1.777-4.625,2.386-7.012.331-1.272.062-2.7.062-4.809-3.205,2.169-5.68,3.868-8.18,5.539-3.928,2.631-7.866,5.158-12.614,6.195-8.006,1.742-14.077-4.261-11.516-12.091a183.151,183.151,0,0,1,15.767-34.958c1.594-2.762,4.033-4.277,7.283-3.868,2.491.314,4.948.94,7.918,1.533-6.194,10.079-12.962,19.322-11.412,31.578,5.8-1.725,11.49-3.563,15.236-9,4.46-6.473,9.208-12.744,13.685-19.208,2.778-4.016,6.115-6.848,11.272-6.864,5.052-.017,6.4,2.187,4.338,6.856-5.775,13.042-11.481,26.107-17.213,39.166-6.045,13.771-11.769,27.7-18.233,41.282A156.951,156.951,0,0,1,3172.688,4772a59.872,59.872,0,0,1-18.912,14.8Z" transform="translate(-2677.136 -4437.039)" fill="#fbbf39"/>
      <path id="Path_299" data-name="Path 299" d="M3145.909,4582.184c3.075-2.03,6.045-4.26,9.26-6.02a29.783,29.783,0,0,1,8-3.126c5.714-1.2,9.765,2.674,10.079,9.068.113,2.2.557,4.382.845,6.576-4.016,16.691-12.492,30.437-26.7,40.394-3.328,2.334-7.065,3.127-11.951,3.65a30.72,30.72,0,0,1,2.116-3.789c4.329-5.462,8.755-10.847,13.076-16.309,3.624-4.582,5.618-9.982,7.1-15.523.462-1.733-.261-3.781-.435-5.7-3.293-.026-5.6.775-7.213,2.84a36.911,36.911,0,0,0-4.7,6.916c-7.813,16.8-15.436,33.7-23.2,50.533-1.133,2.449-1.725,4.8-.645,7.353,4.452-3.362,8.868-6.8,13.406-10.07,2.457-1.769,5.088-3.311,7.709-4.827a14.443,14.443,0,0,1,3.737-1.489c3.284-.81,6.882-1.855,9.582.872a10.863,10.863,0,0,1,2.779,11.577c-4.19,11.368-8.615,22.667-13.4,33.8-2.492,5.8-7.8,7.543-14.165,5.262a59.5,59.5,0,0,1,1.838-7.292c2.361-6.194,4.992-12.274,7.431-18.433,1.446-3.65,1.4-4.451.261-8.685-3.572-.253-6.472.531-9.051,3.6-9.138,10.836-18.311,21.6-26.012,33.564-3.911,6.071-8.693,6.977-16.4,3.728.462-1.316.88-2.683,1.4-4.007q10.466-26.473,20.959-52.93c.366-.931.593-1.924.889-2.883q9.147-19.586,18.285-39.165Q3138.347,4591.925,3145.909,4582.184Z" transform="translate(-2670.305 -4427.3)" fill="#fbbf39"/>
      <path id="Path_300" data-name="Path 300" d="M3043.692,4652.043c1.306-2.081,2.77-4.084,3.885-6.262,3.658-7.144,6.638-8.477,14.9-6.237q-2.73,7.187-5.453,14.338c-.017.088-.035.166-.062.253.009-.1.009-.191.018-.288,1.769-.532,3.555-1.011,5.3-1.611,3.467-1.193,6.821-2.84,10.375-3.58,5.236-1.089,9.635.845,12.945,5.114a60.253,60.253,0,0,1-.923,18.754,31.761,31.761,0,0,1-9.078,16.978c-3.258,3.093-6.646,6.064-10.183,8.825a25.436,25.436,0,0,1-15.575,5.522c-9.278.218-16.647,4.338-20.515,12.909-3.588,7.954-6.394,16.282-9.382,24.5-3.946,10.864-7.727,21.787-11.612,32.676a30.149,30.149,0,0,1-1.621,3.7c-1.533,2.928-2.988,3.354-6.045,1.891-5.645-2.708-8.154-8.493-5.871-15.1,2.378-6.891,5.156-13.66,8.1-20.322q19.626-44.363,39.461-88.628C3042.846,4654.353,3043.247,4653.185,3043.692,4652.043Zm-2.013,36.317c.418,4.416,1.15,5.166,5.158,6.2a10.947,10.947,0,0,0,8.972-1.708c9-5.671,13.651-14.312,15.192-24.392.942-6.132-2.831-8.258-8.3-6.611a5.55,5.55,0,0,0-2.4,1.742c-5.558,6.621-11.116,13.25-16.516,20C3042.741,4684.912,3042.367,4686.758,3041.679,4688.361Z" transform="translate(-2658.022 -4435.773)" fill="#fcc039"/>
      <path id="Path_301" data-name="Path 301" d="M2904.215,4595.982q6.429-7.409,12.849-14.81a61.388,61.388,0,0,1,7.692-.252c3.328.277,4.53,2.2,3.432,5.409a64.378,64.378,0,0,1-3.31,7.351c-1.812,3.721-3.694,7.4-5.793,11.579,5.332,0,10.218.1,15.1-.036a11.121,11.121,0,0,1,8.694,3.25c-1.594,4.051-4.677,6-8.964,6.15-2.919.1-5.854.175-8.763.034-5.584-.278-9.739,2.135-12.047,7-8.171,17.239-16.534,34.409-23.921,51.979-2.761,6.568-3.058,14.182-4.5,21.308-.688,3.4-1.437,6.777-2.282,10.784-2.884-1.567-5.488-2.787-7.849-4.382a4.873,4.873,0,0,1-1.664-3.118c-1.01-7.161-1.376-14.3,1.507-21.2q10.414-25.009,20.768-50.046c1.237-3,2.43-6.011,3.8-9.417-5.235-.33-9.887-1.638-14.034-4.773a31.992,31.992,0,0,1,9.975-10.209C2898.039,4600.451,2901.114,4598.186,2904.215,4595.982Z" transform="translate(-2642.323 -4428.336)" fill="#fbbf39"/>
      <path id="Path_302" data-name="Path 302" d="M3027.125,4663.258a8.27,8.27,0,0,1-1.341,7.413c-4.522,6.559-8.512,13.477-13.136,19.948-5.088,7.109-11.709,12.318-20.489,14.366-17.623,4.1-30.925-8.033-27.23-25.672,3.24-15.446,12.4-26.387,27.892-31.273,5.619-1.769,11.333-1.42,16.978-.21,5.245,1.115,7.474,4.025,8.268,10.08.645,4.852.645,4.852,5.409,5.1C3024.678,4663.066,3025.888,4663.17,3027.125,4663.258Zm-48.094,23.259c-.174,5.662,4.7,10.636,10.515,9.435a15.47,15.47,0,0,0,10.34-6.96,7.469,7.469,0,0,0,1-7.04c-1.01-2.587-3.11-2.734-5.506-2.77-2.779-.044-3.606-1.5-2.525-4.034,1.254-2.926,2.935-5.548,5.862-7.16a10.476,10.476,0,0,0,5.087-7.213,3.389,3.389,0,0,0-2.2-4.32c-3.746-1.672-7.038-.794-10.043,1.638C2982.873,4665.113,2979.79,4674.729,2979.031,4686.517Z" transform="translate(-2654.201 -4436.838)" fill="#fbbf39"/>
      <path id="Path_303" data-name="Path 303" d="M2931.9,4661.065c5.209-1.028,8.494-3.98,11.96-6.638a67.318,67.318,0,0,1,7.125-5.062c4.278-2.448,8.737-2.448,13.676-.078-6.228,11.037-8.954,23.712-17.422,33.886-4.155-3.684-6.56-7.779-7.178-13.18a20.42,20.42,0,0,0-11.847,7.231c-5.828,6.994-11.158,14.338-14.444,22.979-1.654,4.348-4.364,5.9-8.894,5.575-4.155-.3-6.254-3.606-4.555-7.456,6.289-14.269,12.71-28.477,18.938-42.772,1.856-4.269,5.532-5.376,9.443-5.976,2.639-.409,5.3,3.789,4.573,6.907C2932.955,4657.886,2932.458,4659.22,2931.9,4661.065Z" transform="translate(-2645.878 -4436.928)" fill="#fbbf39"/>
      <g id="Group_336" data-name="Group 336">
        <path id="Path_304" data-name="Path 304" d="M2608.32,4512.694a54.208,54.208,0,0,0,1.219-5.706q3.424-31.5,6.725-63.017c.767-7.265,1.411-14.539,2.117-21.812a23.017,23.017,0,0,1,.331-2.674c1.307-6.089,4.548-7.98,10.593-6.254,10.749,3.057,18.659,9.216,20.558,20.724a63.212,63.212,0,0,1,.071,16.08c-1.8,18.79-3.929,37.546-5.916,56.317-.523,4.914-1.2,9.835-1.358,14.766-.192,5.941-.1,11.909.235,17.84.262,4.721,2.8,6.238,7.4,4.773,7.047-2.256,14.051-4.643,21.08-6.951a28.571,28.571,0,0,1,2.928-.758,13.317,13.317,0,0,1,15.6,17.274,9.48,9.48,0,0,1-6.42,6.455c-13.554,4.1-27.187,7.763-41.474,8.389a25.027,25.027,0,0,1-19.443-7.675c-9.338-9.2-13.111-20.681-13.319-33.529-.035-2.134.1-4.278,0-6.412-.026-.6-.6-1.184-.924-1.776Q2608.32,4515.741,2608.32,4512.694Z" transform="translate(-2608.319 -4406.654)" fill="#fff"/>
        <path id="Path_305" data-name="Path 305" d="M3047.623,4628.7c-11.6-4.355-19.469-12.2-22.6-24.391-1.5-5.828.026-10.916,4.059-15.253,3.058-3.293,6.185-6.542,9.443-9.643,3.406-3.233,4.181-6.786,1.865-10.89-2.953-5.235-3.877-10.628-2.039-16.516a17.974,17.974,0,0,1,4.948-7.866c.409-.393.81-.785,1.211-1.176,5.715-5.515,5.715-7.344.331-13.031-9.243-9.767-11.978-21.7-10.688-34.619a51.019,51.019,0,0,1,16.838-33.574c5.523-5.043,10.332-5.645,16.874-1.934,2.831,1.6,5.514,3.468,8.24,5.245,5.9,3.841,11.865,4.6,18.5,1.532,3.153-1.455,6.89-1.882,10.418-2.24,3.642-.365,6.316,1.691,7.614,5.01a60.017,60.017,0,0,1,2.84,9.67c.792,3.876-.287,6.445-4,8-8.52,3.572-7.039,6.369-5.862,13.336.949,5.636,2.377,11.265,2.639,16.944.811,17.474-10.253,29.269-27.771,30.21a47.776,47.776,0,0,0-6.7.671c-4.286.854-5.889,4.921-2.9,8.093a27.525,27.525,0,0,0,8.467,6.464,94.582,94.582,0,0,0,16.542,5.558c11.386,2.674,20.567,8.2,26.552,18.476q-9.148,19.587-18.285,39.165-7.318,2.233-14.635,4.46c-3.3-4.269-7.71-6.2-12.945-5.114-3.554.741-6.908,2.4-10.375,3.581-1.742.6-3.528,1.081-5.3,1.611l.044.035q2.718-7.159,5.453-14.338c-8.267-2.238-11.246-.906-14.905,6.238C3050.394,4624.613,3048.93,4626.617,3047.623,4628.7Zm47.528-36.038c-6.646-2.474-13.372-4.914-20.044-7.482-3.093-1.185-5.409-.21-7.535,2.038a61.763,61.763,0,0,0-12.614,19.748,25.035,25.035,0,0,0-.81,3.171c13.075,1.324,24.609-1.872,35.419-8.423A10.414,10.414,0,0,0,3095.151,4592.661Zm-24.905-65.647c7.056-4.556,7.666-5.349,9.478-12.5,2.439-9.651,1.428-19.173-1.489-28.494-.557-1.794-2.431-4.077-4.06-4.416-2.4-.5-4.059,1.855-5.2,4.007a10.108,10.108,0,0,0-.679,1.89c-1.925,6.2-3.85,12.4-5.732,18.607a7.428,7.428,0,0,0-.392,2.639C3062.737,4515.654,3063.573,4522.467,3070.246,4527.014Z" transform="translate(-2661.954 -4412.428)" fill="#fff"/>
        <path id="Path_306" data-name="Path 306" d="M2897.12,4573.416c-4.608-.941-8.964-2.578-12.091-6.167-1.933-2.212-3.179-5.035-4.991-8.006-.845.331-2.256.863-3.659,1.43-4.364,1.758-8.65,3.771-13.11,5.26-11.141,3.729-21.133,1.342-29.6-6.638a51.357,51.357,0,0,1-15.916-31.585c-2.735-21.264,2.979-40.08,17.867-55.751a53.823,53.823,0,0,1,18.259-12.456c7.187-3.049,13.824-1.908,19.9,2.9.444.348.862.724,1.3,1.08s.854.689,1.751,1.412c.505-3.309,1.124-6.2,1.368-9.129,1.185-14.225,2.273-28.458,3.406-42.684a14.953,14.953,0,0,1,.418-2.649c1.124-4.164,3.406-5.5,7.579-4.164a34.018,34.018,0,0,1,14.042,8.38,18.057,18.057,0,0,1,5.61,13.328c-.2,7.735-.827,15.472-1.568,23.181-2.386,24.756-4.216,49.55-2.186,74.4.906,11.063,2.944,22.031,4.477,33.033Q2903.549,4566.024,2897.12,4573.416Zm-21.786-91.371c-1.882.252-3.345.061-4.347.653-3.345,2-6.916,3.859-9.7,6.515-7.248,6.9-10.941,15.786-12.718,25.489-1.351,7.379-1.473,14.756,1.071,21.961,1.194,3.379,4.2,4.686,7.178,2.814a90.9,90.9,0,0,0,10.906-7.833,19.757,19.757,0,0,0,7.231-14.713c.261-9.425.27-18.868.374-28.293C2875.35,4486.635,2875.333,4484.64,2875.333,4482.045Z" transform="translate(-2635.227 -4405.77)" fill="#fff"/>
        <path id="Path_307" data-name="Path 307" d="M2765.037,4470.185c1.01-2.536,1.76-4.9,2.857-7.083,2.134-4.261,5.026-5.768,9.391-4a97.724,97.724,0,0,1,14.251,7.4,9.268,9.268,0,0,1,4.286,9.016,76.9,76.9,0,0,1-1.376,9.983c-5.139,23.868-3.31,47.354,3.728,70.56,1.01,3.328,2.248,6.586,3.336,9.879a43.213,43.213,0,0,1,1.429,4.834c.872,4.286-.775,6.856-5.113,7.387-10.227,1.247-19.13-1.48-26.159-9.338-.9-1-1.8-2-2.709-3-.07-.079-.2-.1-.41-.192-2.639,1.508-5.252,3.232-8.057,4.565-12.318,5.862-24.322,6.08-35.385-2.866a34.016,34.016,0,0,1-7.212-7.944,70.493,70.493,0,0,1-11.369-42.546c.749-13.771,6.681-25.236,15.986-35.114a91.065,91.065,0,0,1,20.122-15.741c4.983-2.953,10-2.866,15,.114C2760.045,4467.535,2762.528,4468.807,2765.037,4470.185Zm-2.291,32.038h.07a80.6,80.6,0,0,0-.052-8.076c-.436-4.4-3.3-6.1-7-3.736a29.5,29.5,0,0,0-8.023,7.482A54.009,54.009,0,0,0,2738,4534.5a36.5,36.5,0,0,0,3.292,11.185c1.368,3.153,4.051,3.963,7,2.535,6.96-3.38,15.14-9.913,14.538-21.786C2762.415,4518.382,2762.746,4510.3,2762.746,4502.223Z" transform="translate(-2620.962 -4412.551)" fill="#fff"/>
        <path id="Path_308" data-name="Path 308" d="M3151.5,4567.435c-12.335-12.64-19.147-27.736-18.833-45.437.4-22.458,10.828-39.462,29.322-52.075,7.465-5.1,14.983-5.348,23.059-3.1,2,.558,3.781,1.889,6.158,3.109a36.758,36.758,0,0,0,1.716-3.832c2.552-7.893,5.34-9.278,13.023-6.186a66.751,66.751,0,0,1,7.866,3.8c7.317,4.146,9.329,8.529,7.9,16.77-1.028,5.967-2.292,11.908-3.049,17.918a132.8,132.8,0,0,0,4.556,53.678c1.359,4.738,3.119,9.356,4.59,14.06a30.141,30.141,0,0,1,1.455,6.194c.331,3.51-1.533,5.862-5.026,5.714a117.109,117.109,0,0,1-17.03-1.751c-4.834-.923-8.4-4.129-10.566-8.677-.279-.583-.609-1.149-.993-1.864-5.436,2.778-10.715,5.479-15.985,8.17-.287-2.194-.732-4.373-.845-6.576-.322-6.395-4.364-10.271-10.079-9.069a29.723,29.723,0,0,0-8,3.127C3157.547,4563.185,3154.577,4565.415,3151.5,4567.435Zm37.423-66.082h.13c0-2.135.157-4.287-.035-6.4-.479-5.375-3.45-7.012-7.962-4a28.178,28.178,0,0,0-7.187,6.968c-8,11.265-11.02,23.983-9.661,37.632a33.5,33.5,0,0,0,3.206,10.176c1.351,2.971,3.851,3.946,6.368,2.831,6.873-3.049,15.61-9.844,15.2-21.021C3188.673,4518.828,3188.925,4510.081,3188.925,4501.354Z" transform="translate(-2675.899 -4412.552)" fill="#fff"/>
        <path id="Path_309" data-name="Path 309" d="M3016.953,4520.7c-.279,18.416-6.115,33.337-18.207,45.6-9.9,10.044-22.6,12.274-35.254,6-18.59-9.216-29.975-24.356-33.372-44.671-4.156-24.879,2.874-46.239,22.745-62.633a30.677,30.677,0,0,1,6.534-4.111c5.192-2.422,10.156-1.708,14.373,2.177a52.363,52.363,0,0,1,6.2,7.083c4.486,5.976,10.009,10.1,17.527,11.612,5.845,1.176,9.9,5.044,12.779,10.183,3.528,6.29,4.93,13.214,5.915,20.236C3016.648,4515.416,3016.779,4518.682,3016.953,4520.7Zm-28.852-2.726a10.642,10.642,0,0,0-.174-1.646c-2.221-8.336-4.443-16.673-6.751-24.993a10.072,10.072,0,0,0-1.725-3.249c-1.664-2.2-3.8-2.578-5.793-.723a21.549,21.549,0,0,0-4.608,5.723c-6.76,13.128-10.349,27.013-8.728,41.874a33.282,33.282,0,0,0,5.609,15.707c2.622,3.736,5.767,4,9.095.931a21.961,21.961,0,0,0,2.849-3.311C2984.365,4539.24,2986.769,4528.8,2988.1,4517.977Z" transform="translate(-2649.646 -4412.694)" fill="#fff"/>
        <path id="Path_310" data-name="Path 310" d="M3066.308,4656.11c-.009.1-.009.191-.018.288.018-.088.035-.166.061-.254Z" transform="translate(-2667.345 -4438.035)" fill="#fff"/>
      </g>
    </g>
    <g id="Group_338" data-name="Group 338" transform="translate(3166.98 4448.921)">
      <path id="Path_311" data-name="Path 311" d="M3437.175,4469.542a3.908,3.908,0,0,0,.567.087c13.45-.244,22.379,6.759,28.5,18.006,7.961,14.626,8.859,30.131,5.392,46.134-2.291,10.549-5.923,20.515-12.727,29.069-7.753,9.748-17.623,15.6-30.306,16.081-9.1.348-16.482-3.423-22.727-9.712-5.288-5.323-8.476-11.908-10.993-18.868-4.922-13.624-4.905-27.728-3.929-41.892.723-10.523,2.814-20.732,7.569-30.254a41.067,41.067,0,0,1,15.4-17.222C3422.932,4455.43,3434.823,4460.57,3437.175,4469.542Zm-22.605,70.988c1.115,3.528,1.751,6.263,2.84,8.816a48.218,48.218,0,0,0,4.522,8.605c2.491,3.572,5.348,3.99,9.268,2.03a19.688,19.688,0,0,0,7.867-6.934c12.135-18.765,16.577-38.5,7.074-59.829a37.552,37.552,0,0,0-7.927-11.987c-2.335-2.255-3.938-2.472-6.708-.907a4.542,4.542,0,0,1-4.991.176,3.484,3.484,0,0,0-4.2.244,13.3,13.3,0,0,0-3.65,3.71,37.55,37.55,0,0,0-3.545,8.616C3411.277,4509.135,3412.236,4525.258,3414.57,4540.53Z" transform="translate(-3267.784 -4455.739)" fill="#fbbf39"/>
      <path id="Path_312" data-name="Path 312" d="M3364.82,4479.518c-.07,6.83-2.012,13.041-4.643,19.043-4.9,11.185-11.63,21.342-18.25,31.552q-6.7,10.348-13.267,20.792a11.762,11.762,0,0,0-.9,2.918c1.115.071,2.325.454,3.345.166,6.15-1.706,12.256-3.57,18.381-5.374,5.078-1.49,10.148-3.032,15.253-4.443,3.154-.871,4.443.183,4.539,3.484a9.252,9.252,0,0,1-2.57,6.909,58.163,58.163,0,0,1-8.676,7.657c-12.161,8.111-25.568,13.4-39.722,16.9a10.3,10.3,0,0,1-9.2-2.083c-4.721-3.7-8.005-8.45-8.606-14.495a16.22,16.22,0,0,1,1.15-7.918,141.809,141.809,0,0,1,8.45-16.229c7.961-12.971,16.42-25.646,24.269-38.686,3.45-5.723,6.037-11.987,8.746-18.12a14.752,14.752,0,0,0,.9-5.975c-.018-2.247-1.167-3.066-3.406-3.171a17.406,17.406,0,0,0-9.669,2.718,47.309,47.309,0,0,0-12.988,11.655,140.775,140.775,0,0,0-19.1,30.977,8.306,8.306,0,0,1-12.814,3.424c-4.939-3.616-7.483-11.281-5.644-17.136,1.829-5.827,5.313-10.705,9.163-15.3,11.22-13.363,24.4-24.208,40.751-30.786,5.488-2.2,11.194-3.527,17.135-2.107,9.783,2.334,14.67,9.173,16.7,18.52C3364.515,4476.146,3364.619,4477.923,3364.82,4479.518Z" transform="translate(-3253.524 -4455.305)" fill="#fbbf39"/>
      <path id="Path_313" data-name="Path 313" d="M3262.75,4455.59c5.915.087,7.466,1.4,8.72,7.2,1.133,5.227.618,10.453-.2,15.6-1.072,6.751-2.517,13.459-4.015,20.131a24.214,24.214,0,0,1-2.466,5.55c-.862,1.664-2.291,2.116-4.138,1.664a11.953,11.953,0,0,1-8.4-7.4,30.1,30.1,0,0,1-2.2-8.4,76.017,76.017,0,0,1,1.76-25.9C3253.272,4457.985,3256.626,4455.494,3262.75,4455.59Z" transform="translate(-3249.637 -4455.342)" fill="#fbbf39"/>
    </g>
  </g>
</svg>
