<?xml version="1.0" encoding="utf-8"?>
<!-- Generator: Adobe Illustrator 23.0.3, SVG Export Plug-In . SVG Version: 6.00 Build 0)  -->
<svg version="1.1" id="Слой_1" xmlns="http://www.w3.org/2000/svg" xmlns:xlink="http://www.w3.org/1999/xlink" x="0px" y="0px"
	 viewBox="0 0 566.9 82.2" style="enable-background:new 0 0 566.9 82.2;" xml:space="preserve">
<style type="text/css">
	.st0{opacity:0.5;}
	.st1{fill:#FFFFFF;}
	.st2{fill:#FFE401;}
</style>
<g>
	<g class="st0">
		<path d="M80.7,2.1h6.4v34.6h-6.4V2.1z"/>
		<path d="M121.1,24.5h-10.9l-2,5h-7.5l11.4-25.9h7.2l11.5,25.9h-7.6L121.1,24.5z M119,19.1l-3.3-8.3l-3.3,8.3H119z"/>
		<path d="M152.9,23.7c0,1.8-0.7,3.2-2.1,4.2c-1.4,1-3.5,1.5-6.2,1.5h-11.3v-20h10.8c2.6,0,4.6,0.5,6.1,1.4c1.4,0.9,2.2,2.2,2.2,3.8
			c0,1-0.2,1.8-0.7,2.6c-0.5,0.7-1.2,1.3-2.1,1.8C151.8,19.8,152.9,21.3,152.9,23.7z M139.6,17.5h3.8c1.6,0,2.4-0.6,2.4-1.8
			c0-1.2-0.8-1.7-2.4-1.7h-3.8V17.5z M146.5,23.1c0-1.2-0.8-1.8-2.5-1.8h-4.4V25h4.4C145.6,25,146.5,24.3,146.5,23.1z"/>
		<path d="M174.3,15h-6.4v14.5h-7V15h-6.5V9.5h19.9V15z"/>
		<path d="M180.4,28.5c-1.7-0.9-3.1-2.1-4-3.7c-1-1.6-1.5-3.4-1.5-5.4c0-2,0.5-3.7,1.5-5.3c1-1.6,2.3-2.8,4-3.7
			c1.7-0.9,3.7-1.3,5.8-1.3c2.2,0,4.1,0.4,5.8,1.3c1.7,0.9,3.1,2.1,4,3.7c1,1.6,1.4,3.3,1.4,5.3s-0.5,3.8-1.4,5.4
			c-1,1.6-2.3,2.8-4,3.7c-1.7,0.9-3.7,1.3-5.8,1.3C184,29.8,182.1,29.4,180.4,28.5z M189.2,23c0.8-0.9,1.2-2,1.2-3.5
			c0-1.5-0.4-2.6-1.2-3.5c-0.8-0.8-1.8-1.3-3-1.3c-1.2,0-2.2,0.4-3,1.3c-0.8,0.8-1.2,2-1.2,3.5c0,1.5,0.4,2.7,1.2,3.5
			c0.8,0.9,1.8,1.3,3,1.3C187.4,24.3,188.4,23.8,189.2,23z"/>
		<path d="M221.5,9.5v20h-7V15h-6.7v14.5h-7v-20H221.5z"/>
		<path d="M247.6,9.5L239,30.3c-1,2.5-2.2,4.2-3.7,5.2c-1.5,1-3.2,1.5-5.3,1.5c-1.1,0-2.1-0.2-3.2-0.5c-1.1-0.3-1.9-0.8-2.6-1.3
			l2.4-4.9c0.4,0.4,0.9,0.7,1.4,0.9c0.6,0.2,1.1,0.3,1.7,0.3c0.7,0,1.2-0.1,1.6-0.4c0.4-0.3,0.8-0.7,1.1-1.3l-8.6-20.3h7.2l4.9,12.2
			l5-12.2H247.6z"/>
		<path d="M268,15h-6.4v14.5h-7V15h-6.5V9.5H268V15z"/>
		<path d="M290.2,21.3h-14.6c0.3,1,0.9,1.8,1.7,2.4c0.9,0.6,1.9,0.8,3.2,0.8c1,0,1.8-0.1,2.5-0.4c0.7-0.3,1.4-0.7,2.1-1.3l3.7,3.8
			c-1.9,2.2-4.8,3.3-8.5,3.3c-2.3,0-4.4-0.4-6.2-1.3c-1.8-0.9-3.1-2.1-4.1-3.7c-1-1.6-1.5-3.4-1.5-5.4c0-2,0.5-3.7,1.4-5.3
			c0.9-1.6,2.3-2.8,3.9-3.7c1.7-0.9,3.6-1.3,5.7-1.3c2,0,3.8,0.4,5.4,1.2c1.6,0.8,2.9,2,3.9,3.6c0.9,1.6,1.4,3.4,1.4,5.6
			C290.3,19.6,290.3,20.2,290.2,21.3z M276.9,15c-0.7,0.6-1.2,1.5-1.4,2.5h8.2c-0.2-1.1-0.7-1.9-1.4-2.5c-0.7-0.6-1.6-0.9-2.7-0.9
			C278.5,14.1,277.6,14.4,276.9,15z"/>
		<path d="M325.8,9.5v20H294v-20h7v14.4h5.4V9.5h7v14.4h5.4V9.5H325.8z"/>
		<path d="M350.7,21.3h-14.6c0.3,1,0.9,1.8,1.7,2.4c0.9,0.6,1.9,0.8,3.2,0.8c1,0,1.8-0.1,2.5-0.4c0.7-0.3,1.4-0.7,2.1-1.3l3.7,3.8
			c-1.9,2.2-4.8,3.3-8.5,3.3c-2.3,0-4.4-0.4-6.2-1.3c-1.8-0.9-3.2-2.1-4.1-3.7c-1-1.6-1.5-3.4-1.5-5.4c0-2,0.5-3.7,1.4-5.3
			c0.9-1.6,2.3-2.8,3.9-3.7c1.7-0.9,3.6-1.3,5.7-1.3c2,0,3.8,0.4,5.4,1.2c1.6,0.8,2.9,2,3.9,3.6c0.9,1.6,1.4,3.4,1.4,5.6
			C350.8,19.6,350.8,20.2,350.7,21.3z M337.4,15c-0.7,0.6-1.2,1.5-1.4,2.5h8.2c-0.2-1.1-0.7-1.9-1.4-2.5c-0.7-0.6-1.6-0.9-2.7-0.9
			C339,14.1,338.1,14.4,337.4,15z"/>
		<path d="M358.6,28.5c-1.8-0.9-3.1-2.1-4.1-3.7c-1-1.6-1.5-3.4-1.5-5.4s0.5-3.8,1.5-5.3c1-1.6,2.3-2.8,4.1-3.7
			c1.8-0.9,3.7-1.3,6-1.3c2.3,0,4.2,0.5,5.9,1.5c1.7,1,2.8,2.3,3.5,4l-5.4,2.8c-0.9-1.8-2.2-2.7-4-2.7c-1.3,0-2.3,0.4-3.1,1.3
			c-0.8,0.8-1.2,2-1.2,3.5c0,1.5,0.4,2.7,1.2,3.5c0.8,0.9,1.9,1.3,3.1,1.3c1.7,0,3.1-0.9,4-2.7l5.4,2.8c-0.7,1.7-1.9,3.1-3.5,4
			c-1.7,1-3.6,1.5-5.9,1.5C362.3,29.8,360.4,29.4,358.6,28.5z"/>
		<path d="M394.8,15h-6.4v14.5h-7V15h-6.5V9.5h19.9V15z"/>
		<path d="M417.2,23.7c0,1.8-0.7,3.2-2.1,4.2c-1.4,1-3.5,1.5-6.2,1.5h-11.3v-20h10.8c2.6,0,4.6,0.5,6.1,1.4c1.4,0.9,2.2,2.2,2.2,3.8
			c0,1-0.2,1.8-0.7,2.6c-0.5,0.7-1.2,1.3-2.1,1.8C416,19.8,417.2,21.3,417.2,23.7z M403.9,17.5h3.8c1.6,0,2.4-0.6,2.4-1.8
			c0-1.2-0.8-1.7-2.4-1.7h-3.8V17.5z M410.8,23.1c0-1.2-0.8-1.8-2.5-1.8h-4.4V25h4.4C409.9,25,410.8,24.3,410.8,23.1z"/>
		<path d="M420.7,9.5h7V20l8.4-10.5h6.5v20h-7V19l-8.3,10.5h-6.5V9.5z"/>
		<path d="M466.2,9.5v20h-6.2v-5.4h-3.2l-3.6,5.4h-7.4l4.4-6.4c-1.3-0.6-2.3-1.4-3.1-2.4c-0.7-1-1.1-2.2-1.1-3.7
			c0-2.4,0.9-4.2,2.7-5.6c1.8-1.3,4.2-2,7.3-2H466.2z M453.3,17.3c0,0.8,0.2,1.4,0.7,1.7c0.5,0.4,1.2,0.6,2.2,0.6h3.7V15h-3.7
			C454.2,15,453.3,15.8,453.3,17.3z"/>
		<path d="M481.9,2.1h6.4v34.6h-6.4V2.1z"/>
		<path d="M2.1,46.4h6.4v34.6H2.1V46.4z"/>
		<path d="M50.1,71.2c-2.1,1.8-5.1,2.8-9,3.1v6.8h-6.2v-6.7c-3.9-0.3-6.9-1.4-9-3.2c-2.1-1.8-3.1-4.2-3.1-7.4c0-3.1,1-5.5,3.1-7.2
			c2.1-1.7,5.1-2.7,9-3v-7.1h6.2v7.1c3.9,0.3,6.9,1.3,9,3.1c2.1,1.7,3.1,4.1,3.1,7.2C53.2,66.9,52.2,69.4,50.1,71.2z M30.7,67.5
			c0.9,0.9,2.2,1.4,4.2,1.6V58.6c-1.9,0.2-3.3,0.8-4.2,1.6c-0.8,0.8-1.3,2-1.3,3.6C29.5,65.4,29.9,66.6,30.7,67.5z M45.3,67.5
			c0.9-0.9,1.3-2.1,1.3-3.7c0-1.6-0.4-2.7-1.3-3.6c-0.9-0.8-2.2-1.3-4.2-1.6v10.5C43.1,68.9,44.5,68.4,45.3,67.5z"/>
		<path d="M76.7,65.6H62.2c0.3,1,0.9,1.8,1.7,2.4c0.9,0.6,1.9,0.8,3.2,0.8c1,0,1.8-0.1,2.5-0.4c0.7-0.3,1.4-0.7,2.1-1.3l3.7,3.8
			c-1.9,2.2-4.8,3.3-8.5,3.3c-2.3,0-4.4-0.4-6.2-1.3c-1.8-0.9-3.1-2.1-4.1-3.7c-1-1.6-1.5-3.4-1.5-5.4c0-2,0.5-3.7,1.4-5.3
			c0.9-1.6,2.3-2.8,3.9-3.7c1.7-0.9,3.6-1.3,5.7-1.3c2,0,3.8,0.4,5.4,1.2c1.6,0.8,2.9,2,3.9,3.6c0.9,1.6,1.4,3.4,1.4,5.6
			C76.8,63.9,76.8,64.5,76.7,65.6z M63.4,59.4c-0.7,0.6-1.2,1.5-1.4,2.5h8.2c-0.2-1.1-0.7-1.9-1.4-2.5c-0.7-0.6-1.6-0.9-2.7-0.9
			C65.1,58.5,64.2,58.8,63.4,59.4z"/>
		<path d="M84.6,72.9c-1.8-0.9-3.1-2.1-4.1-3.7c-1-1.6-1.5-3.4-1.5-5.4c0-2,0.5-3.8,1.5-5.3c1-1.6,2.3-2.8,4.1-3.7
			c1.7-0.9,3.7-1.3,6-1.3c2.3,0,4.2,0.5,5.9,1.5c1.7,1,2.8,2.3,3.5,4l-5.4,2.8c-0.9-1.8-2.2-2.7-4-2.7c-1.3,0-2.3,0.4-3.1,1.3
			c-0.8,0.8-1.2,2-1.2,3.5c0,1.5,0.4,2.7,1.2,3.5c0.8,0.9,1.9,1.3,3.1,1.3c1.8,0,3.1-0.9,4-2.7l5.4,2.8c-0.7,1.7-1.9,3.1-3.5,4
			c-1.7,1-3.6,1.5-5.9,1.5C88.4,74.2,86.4,73.8,84.6,72.9z"/>
		<path d="M120.9,59.4h-6.4v14.5h-7V59.4H101v-5.6h19.9V59.4z"/>
		<path d="M123.6,53.8h7v10.5l8.4-10.5h6.5v20h-7V63.3l-8.3,10.5h-6.5V53.8z"/>
		<path d="M169.8,68.1c0,1.8-0.7,3.2-2.1,4.2c-1.4,1-3.5,1.5-6.2,1.5h-11.3v-20H161c2.6,0,4.6,0.5,6.1,1.4c1.4,0.9,2.2,2.2,2.2,3.8
			c0,1-0.2,1.8-0.7,2.6s-1.2,1.3-2.1,1.8C168.7,64.1,169.8,65.7,169.8,68.1z M156.5,61.9h3.8c1.6,0,2.4-0.6,2.4-1.8
			c0-1.2-0.8-1.7-2.4-1.7h-3.8V61.9z M163.4,67.5c0-1.2-0.8-1.8-2.5-1.8h-4.4v3.7h4.4C162.5,69.3,163.4,68.7,163.4,67.5z"/>
		<path d="M189.1,55.8c1.7,1.5,2.6,3.8,2.6,7v11.1h-6.5v-2.6c-1,1.9-3,2.9-5.9,2.9c-1.6,0-2.9-0.3-4-0.8c-1.1-0.5-2-1.3-2.6-2.2
			c-0.6-0.9-0.9-2-0.9-3.2c0-1.9,0.7-3.4,2.2-4.4c1.5-1,3.7-1.6,6.7-1.6h4c-0.1-2.1-1.5-3.2-4.3-3.2c-1,0-1.9,0.2-2.9,0.5
			c-1,0.3-1.8,0.7-2.5,1.3l-2.4-4.8c1.1-0.7,2.5-1.3,4-1.7c1.6-0.4,3.2-0.6,4.8-0.6C184.8,53.5,187.4,54.3,189.1,55.8z M183.4,69.2
			c0.6-0.4,1.1-1,1.3-1.7v-1.7h-3c-2,0-3.1,0.7-3.1,2c0,0.6,0.2,1.1,0.7,1.5c0.5,0.4,1.1,0.6,1.9,0.6
			C182.1,69.8,182.8,69.6,183.4,69.2z"/>
		<path d="M216.4,53.8v20h-7V59.4h-5.1l-0.1,3.1c-0.1,2.6-0.4,4.8-0.8,6.5c-0.4,1.7-1.1,3-2.1,4c-1,0.9-2.3,1.4-4,1.4
			c-0.9,0-2-0.2-3.4-0.5l0.3-5.7c0.4,0,0.7,0.1,0.9,0.1c0.8,0,1.3-0.2,1.7-0.7c0.4-0.5,0.7-1.2,0.8-2c0.1-0.8,0.2-1.9,0.3-3.3
			l0.3-8.4H216.4z"/>
		<path d="M239,61.8c1.4,1.2,2.1,2.8,2.1,5c0,2.2-0.8,4-2.4,5.2c-1.6,1.3-3.8,1.9-6.7,1.9h-10.9v-20h7V60h4.8
			C235.5,60.1,237.6,60.7,239,61.8z M234,66.7c0-0.8-0.2-1.4-0.7-1.7c-0.4-0.4-1.1-0.6-2-0.6h-3.2V69l3.2,0
			C233.1,69.1,234,68.3,234,66.7z"/>
		<path d="M255.1,48h7.3v20.1h12.4v5.8h-19.7V48z"/>
		<path d="M293.7,55.8c1.7,1.5,2.6,3.8,2.6,7v11.1h-6.5v-2.6c-1,1.9-3,2.9-5.9,2.9c-1.6,0-2.9-0.3-4-0.8c-1.1-0.5-2-1.3-2.6-2.2
			c-0.6-0.9-0.9-2-0.9-3.2c0-1.9,0.7-3.4,2.2-4.4c1.5-1,3.7-1.6,6.7-1.6h4c-0.1-2.1-1.5-3.2-4.3-3.2c-1,0-1.9,0.2-2.9,0.5
			c-1,0.3-1.8,0.7-2.5,1.3l-2.4-4.8c1.1-0.7,2.5-1.3,4-1.7c1.6-0.4,3.2-0.6,4.8-0.6C289.5,53.5,292,54.3,293.7,55.8z M288,69.2
			c0.6-0.4,1.1-1,1.3-1.7v-1.7h-3c-2,0-3.1,0.7-3.1,2c0,0.6,0.2,1.1,0.7,1.5c0.5,0.4,1.1,0.6,1.9,0.6S287.4,69.6,288,69.2z"/>
		<path d="M322.4,46.4v27.4h-6.7v-2c-1.3,1.6-3.3,2.3-5.9,2.3c-1.8,0-3.5-0.4-5-1.3c-1.5-0.9-2.7-2.1-3.6-3.6
			c-0.9-1.6-1.3-3.4-1.3-5.5c0-2.1,0.4-3.9,1.3-5.5c0.9-1.6,2.1-2.8,3.6-3.6c1.5-0.8,3.2-1.3,5-1.3c2.4,0,4.2,0.7,5.5,2.1v-9.1
			H322.4z M314.3,67.4c0.8-0.9,1.2-2,1.2-3.5c0-1.5-0.4-2.6-1.2-3.5c-0.8-0.8-1.8-1.3-3-1.3c-1.2,0-2.2,0.4-3,1.3
			c-0.8,0.8-1.2,2-1.2,3.5c0,1.5,0.4,2.7,1.2,3.5c0.8,0.9,1.8,1.3,3,1.3C312.5,68.6,313.5,68.2,314.3,67.4z"/>
		<path d="M331.2,72.9c-1.7-0.9-3.1-2.1-4-3.7c-1-1.6-1.5-3.4-1.5-5.4c0-2,0.5-3.7,1.5-5.3c1-1.6,2.3-2.8,4-3.7
			c1.7-0.9,3.7-1.3,5.8-1.3s4.1,0.4,5.8,1.3c1.7,0.9,3.1,2.1,4,3.7c1,1.6,1.4,3.3,1.4,5.3c0,2-0.5,3.8-1.4,5.4c-1,1.6-2.3,2.8-4,3.7
			c-1.7,0.9-3.7,1.3-5.8,1.3C334.8,74.2,332.9,73.8,331.2,72.9z M340,67.4c0.8-0.9,1.2-2,1.2-3.5c0-1.5-0.4-2.6-1.2-3.5
			c-0.8-0.8-1.8-1.3-3-1.3s-2.2,0.4-3,1.3c-0.8,0.8-1.2,2-1.2,3.5c0,1.5,0.4,2.7,1.2,3.5c0.8,0.9,1.8,1.3,3,1.3S339.2,68.2,340,67.4
			z"/>
		<path d="M373.1,53.8v16.4c0,3.7-1,6.5-3,8.4c-2,1.9-4.9,2.8-8.7,2.8c-2,0-3.8-0.2-5.5-0.7c-1.7-0.4-3.2-1.1-4.4-2l2.6-4.9
			c0.8,0.7,1.8,1.2,3.1,1.6c1.2,0.4,2.5,0.6,3.7,0.6c1.8,0,3.2-0.4,4.1-1.2c0.9-0.8,1.3-2,1.3-3.6v-0.7c-1.4,1.6-3.3,2.4-6,2.4
			c-1.8,0-3.4-0.4-4.9-1.2c-1.5-0.8-2.7-1.9-3.6-3.4c-0.9-1.5-1.3-3.2-1.3-5.1c0-1.9,0.4-3.6,1.3-5c0.9-1.5,2.1-2.6,3.6-3.4
			s3.1-1.2,4.9-1.2c2.9,0,5,0.9,6.3,2.8v-2.4H373.1z M364.9,66.1c0.8-0.8,1.2-1.8,1.2-3c0-1.2-0.4-2.2-1.2-2.9
			c-0.8-0.8-1.9-1.1-3.1-1.1c-1.3,0-2.3,0.4-3.2,1.1c-0.8,0.8-1.2,1.7-1.2,2.9c0,1.2,0.4,2.2,1.3,3c0.8,0.8,1.9,1.1,3.1,1.1
			C363,67.3,364.1,66.9,364.9,66.1z"/>
		<path d="M393.8,55.8c1.7,1.5,2.6,3.8,2.6,7v11.1h-6.5v-2.6c-1,1.9-3,2.9-5.9,2.9c-1.6,0-2.9-0.3-4-0.8c-1.1-0.5-2-1.3-2.6-2.2
			c-0.6-0.9-0.9-2-0.9-3.2c0-1.9,0.7-3.4,2.2-4.4c1.5-1,3.7-1.6,6.7-1.6h4c-0.1-2.1-1.5-3.2-4.3-3.2c-1,0-1.9,0.2-2.9,0.5
			c-1,0.3-1.8,0.7-2.5,1.3l-2.4-4.8c1.1-0.7,2.5-1.3,4-1.7c1.6-0.4,3.2-0.6,4.8-0.6C389.5,53.5,392,54.3,393.8,55.8z M388,69.2
			c0.6-0.4,1.1-1,1.3-1.7v-1.7h-3c-2,0-3.1,0.7-3.1,2c0,0.6,0.2,1.1,0.7,1.5c0.5,0.4,1.1,0.6,1.9,0.6
			C386.7,69.8,387.4,69.6,388,69.2z"/>
		<path d="M417.4,53.8h-8V48h23.2v5.8h-7.9v20.1h-7.3V53.8z"/>
		<path d="M444.1,54.2c1.1-0.5,2.5-0.7,3.9-0.7v6.3c-0.6-0.1-1.2-0.1-1.6-0.1c-1.5,0-2.7,0.4-3.5,1.2c-0.9,0.8-1.3,2.1-1.3,3.7v9.2
			h-7v-20h6.7v2.4C442.1,55.3,443,54.6,444.1,54.2z"/>
		<path d="M455,72.9c-1.7-0.9-3.1-2.1-4-3.7c-1-1.6-1.5-3.4-1.5-5.4c0-2,0.5-3.7,1.5-5.3c1-1.6,2.3-2.8,4-3.7
			c1.7-0.9,3.7-1.3,5.8-1.3s4.1,0.4,5.8,1.3c1.7,0.9,3.1,2.1,4,3.7c1,1.6,1.4,3.3,1.4,5.3c0,2-0.5,3.8-1.4,5.4c-1,1.6-2.3,2.8-4,3.7
			c-1.7,0.9-3.7,1.3-5.8,1.3C458.7,74.2,456.8,73.8,455,72.9z M463.9,67.4c0.8-0.9,1.2-2,1.2-3.5c0-1.5-0.4-2.6-1.2-3.5
			c-0.8-0.8-1.8-1.3-3-1.3s-2.2,0.4-3,1.3c-0.8,0.8-1.2,2-1.2,3.5c0,1.5,0.4,2.7,1.2,3.5c0.8,0.9,1.8,1.3,3,1.3
			S463.1,68.2,463.9,67.4z"/>
		<path d="M493,54.8c1.5,0.9,2.7,2.1,3.6,3.6c0.9,1.6,1.3,3.4,1.3,5.5c0,2.1-0.4,3.9-1.3,5.5c-0.9,1.6-2.1,2.8-3.6,3.6
			c-1.5,0.8-3.2,1.3-5,1.3c-2.3,0-4.2-0.7-5.6-2.1v8.9h-7V53.8h6.7v2c1.3-1.6,3.3-2.3,5.9-2.3C489.8,53.5,491.5,53.9,493,54.8z
			 M489.6,67.4c0.8-0.9,1.2-2,1.2-3.5s-0.4-2.6-1.2-3.5c-0.8-0.9-1.8-1.3-3-1.3c-1.2,0-2.2,0.4-3,1.3c-0.8,0.9-1.2,2-1.2,3.5
			s0.4,2.6,1.2,3.5c0.8,0.9,1.8,1.3,3,1.3C487.8,68.6,488.8,68.2,489.6,67.4z"/>
		<path d="M520.2,55.7c1.5,1.5,2.3,3.7,2.3,6.7v11.5h-7V63.6c0-2.7-1.1-4.1-3.3-4.1c-1.2,0-2.2,0.4-2.9,1.2c-0.7,0.8-1.1,2-1.1,3.5
			v9.7h-7V46.4h7v9.2c0.8-0.7,1.7-1.3,2.7-1.6s2.1-0.6,3.3-0.6C516.7,53.5,518.7,54.2,520.2,55.7z"/>
		<path d="M547.6,53.8l-8.7,20.9c-1,2.5-2.2,4.2-3.7,5.2c-1.5,1-3.2,1.5-5.3,1.5c-1.1,0-2.1-0.2-3.2-0.5c-1.1-0.3-1.9-0.8-2.6-1.3
			l2.4-4.9c0.4,0.4,0.9,0.7,1.4,0.9c0.6,0.2,1.1,0.3,1.7,0.3c0.7,0,1.2-0.1,1.6-0.4c0.4-0.3,0.8-0.7,1.1-1.3l-8.6-20.3h7.2l4.9,12.2
			l5-12.2H547.6z"/>
		<path d="M560.5,46.4h6.4v34.6h-6.4V46.4z"/>
	</g>
	<g>
		<path class="st1" d="M78.6,0H85v34.6h-6.4V0z"/>
		<path class="st1" d="M119,22.4h-10.9l-2,5h-7.5L110,1.6h7.2l11.5,25.9h-7.6L119,22.4z M116.9,17l-3.3-8.3l-3.3,8.3H116.9z"/>
		<path class="st1" d="M150.8,21.7c0,1.8-0.7,3.2-2.1,4.2c-1.4,1-3.5,1.5-6.2,1.5h-11.3v-20H142c2.6,0,4.6,0.5,6.1,1.4
			c1.4,0.9,2.2,2.2,2.2,3.8c0,1-0.2,1.8-0.7,2.6c-0.5,0.7-1.2,1.3-2.1,1.8C149.7,17.7,150.8,19.3,150.8,21.7z M137.5,15.5h3.8
			c1.6,0,2.4-0.6,2.4-1.8c0-1.2-0.8-1.7-2.4-1.7h-3.8V15.5z M144.4,21c0-1.2-0.8-1.8-2.5-1.8h-4.4v3.7h4.4
			C143.6,22.9,144.4,22.3,144.4,21z"/>
		<path class="st1" d="M172.3,13h-6.4v14.5h-7V13h-6.5V7.4h19.9V13z"/>
		<path class="st1" d="M178.3,26.4c-1.7-0.9-3.1-2.1-4-3.7c-1-1.6-1.5-3.4-1.5-5.4c0-2,0.5-3.7,1.5-5.3c1-1.6,2.3-2.8,4-3.7
			c1.7-0.9,3.7-1.3,5.8-1.3c2.2,0,4.1,0.4,5.8,1.3c1.7,0.9,3.1,2.1,4,3.7c1,1.6,1.4,3.3,1.4,5.3s-0.5,3.8-1.4,5.4
			c-1,1.6-2.3,2.8-4,3.7c-1.7,0.9-3.7,1.3-5.8,1.3C182,27.8,180,27.3,178.3,26.4z M187.1,20.9c0.8-0.9,1.2-2,1.2-3.5
			c0-1.5-0.4-2.6-1.2-3.5c-0.8-0.8-1.8-1.3-3-1.3c-1.2,0-2.2,0.4-3,1.3c-0.8,0.8-1.2,2-1.2,3.5c0,1.5,0.4,2.7,1.2,3.5
			c0.8,0.9,1.8,1.3,3,1.3C185.3,22.2,186.4,21.8,187.1,20.9z"/>
		<path class="st1" d="M219.4,7.4v20h-7V13h-6.7v14.5h-7v-20H219.4z"/>
		<path class="st1" d="M245.6,7.4l-8.7,20.9c-1,2.5-2.2,4.2-3.7,5.2c-1.5,1-3.2,1.5-5.3,1.5c-1.1,0-2.1-0.2-3.2-0.5
			c-1.1-0.3-1.9-0.8-2.6-1.3l2.4-4.9c0.4,0.4,0.9,0.7,1.4,0.9c0.6,0.2,1.1,0.3,1.7,0.3c0.7,0,1.2-0.1,1.6-0.4
			c0.4-0.3,0.8-0.7,1.1-1.3l-8.6-20.3h7.2l4.9,12.2l5-12.2H245.6z"/>
		<path class="st1" d="M266,13h-6.4v14.5h-7V13h-6.5V7.4H266V13z"/>
		<path class="st1" d="M288.1,19.2h-14.6c0.3,1,0.9,1.8,1.7,2.4c0.9,0.6,1.9,0.8,3.2,0.8c1,0,1.8-0.1,2.5-0.4
			c0.7-0.3,1.4-0.7,2.1-1.3l3.7,3.8c-1.9,2.2-4.8,3.3-8.5,3.3c-2.3,0-4.4-0.4-6.2-1.3c-1.8-0.9-3.1-2.1-4.1-3.7
			c-1-1.6-1.5-3.4-1.5-5.4c0-2,0.5-3.7,1.4-5.3c0.9-1.6,2.3-2.8,3.9-3.7c1.7-0.9,3.6-1.3,5.7-1.3c2,0,3.8,0.4,5.4,1.2
			c1.6,0.8,2.9,2,3.9,3.6c0.9,1.6,1.4,3.4,1.4,5.6C288.2,17.5,288.2,18.1,288.1,19.2z M274.8,13c-0.7,0.6-1.2,1.5-1.4,2.5h8.2
			c-0.2-1.1-0.7-1.9-1.4-2.5c-0.7-0.6-1.6-0.9-2.7-0.9C276.5,12.1,275.6,12.4,274.8,13z"/>
		<path class="st1" d="M323.7,7.4v20h-31.8v-20h7v14.4h5.4V7.4h7v14.4h5.4V7.4H323.7z"/>
		<path class="st1" d="M348.6,19.2h-14.6c0.3,1,0.9,1.8,1.7,2.4c0.9,0.6,1.9,0.8,3.2,0.8c1,0,1.8-0.1,2.5-0.4
			c0.7-0.3,1.4-0.7,2.1-1.3l3.7,3.8c-1.9,2.2-4.8,3.3-8.5,3.3c-2.3,0-4.4-0.4-6.2-1.3c-1.8-0.9-3.1-2.1-4.1-3.7
			c-1-1.6-1.5-3.4-1.5-5.4c0-2,0.5-3.7,1.4-5.3c0.9-1.6,2.3-2.8,3.9-3.7c1.7-0.9,3.6-1.3,5.7-1.3c2,0,3.8,0.4,5.4,1.2
			c1.6,0.8,2.9,2,3.9,3.6c0.9,1.6,1.4,3.4,1.4,5.6C348.7,17.5,348.7,18.1,348.6,19.2z M335.3,13c-0.7,0.6-1.2,1.5-1.4,2.5h8.2
			c-0.2-1.1-0.7-1.9-1.4-2.5s-1.6-0.9-2.7-0.9C337,12.1,336.1,12.4,335.3,13z"/>
		<path class="st1" d="M356.5,26.4c-1.8-0.9-3.1-2.1-4.1-3.7c-1-1.6-1.5-3.4-1.5-5.4s0.5-3.8,1.5-5.3c1-1.6,2.3-2.8,4.1-3.7
			c1.8-0.9,3.7-1.3,6-1.3c2.3,0,4.2,0.5,5.9,1.5c1.7,1,2.8,2.3,3.5,4l-5.4,2.8c-0.9-1.8-2.2-2.7-4-2.7c-1.3,0-2.3,0.4-3.1,1.3
			c-0.8,0.8-1.2,2-1.2,3.5c0,1.5,0.4,2.7,1.2,3.5c0.8,0.9,1.9,1.3,3.1,1.3c1.7,0,3.1-0.9,4-2.7l5.4,2.8c-0.7,1.7-1.9,3.1-3.5,4
			c-1.7,1-3.6,1.5-5.9,1.5C360.3,27.8,358.3,27.3,356.5,26.4z"/>
		<path class="st1" d="M392.8,13h-6.4v14.5h-7V13h-6.5V7.4h19.9V13z"/>
		<path class="st1" d="M415.1,21.7c0,1.8-0.7,3.2-2.1,4.2c-1.4,1-3.5,1.5-6.2,1.5h-11.3v-20h10.8c2.6,0,4.6,0.5,6.1,1.4
			c1.4,0.9,2.2,2.2,2.2,3.8c0,1-0.2,1.8-0.7,2.6c-0.5,0.7-1.2,1.3-2.1,1.8C414,17.7,415.1,19.3,415.1,21.7z M401.8,15.5h3.8
			c1.6,0,2.4-0.6,2.4-1.8c0-1.2-0.8-1.7-2.4-1.7h-3.8V15.5z M408.7,21c0-1.2-0.8-1.8-2.5-1.8h-4.4v3.7h4.4
			C407.9,22.9,408.7,22.3,408.7,21z"/>
		<path class="st1" d="M418.7,7.4h7v10.5L434,7.4h6.5v20h-7V16.9l-8.3,10.5h-6.5V7.4z"/>
		<path class="st1" d="M464.1,7.4v20h-6.2V22h-3.2l-3.6,5.4h-7.4l4.4-6.4c-1.3-0.6-2.3-1.4-3.1-2.4c-0.7-1-1.1-2.2-1.1-3.7
			c0-2.4,0.9-4.2,2.7-5.6c1.8-1.3,4.2-2,7.3-2H464.1z M451.2,15.2c0,0.8,0.2,1.4,0.7,1.7c0.5,0.4,1.2,0.6,2.2,0.6h3.7v-4.5h-3.7
			C452.2,12.9,451.2,13.7,451.2,15.2z"/>
		<path class="st1" d="M479.8,0h6.4v34.6h-6.4V0z"/>
		<path class="st1" d="M0,44.4h6.4V79H0V44.4z"/>
		<path class="st1" d="M48,69.1c-2.1,1.8-5.1,2.8-9,3.1V79h-6.2v-6.7c-3.9-0.3-6.9-1.4-9-3.2c-2.1-1.8-3.1-4.2-3.1-7.4
			c0-3.1,1-5.5,3.1-7.2c2.1-1.7,5.1-2.7,9-3v-7.1H39v7.1c3.9,0.3,6.9,1.3,9,3.1c2.1,1.7,3.1,4.1,3.1,7.2
			C51.2,64.8,50.1,67.3,48,69.1z M28.7,65.4c0.9,0.9,2.2,1.4,4.2,1.6V56.6c-1.9,0.2-3.3,0.8-4.2,1.6c-0.8,0.8-1.3,2-1.3,3.6
			C27.4,63.3,27.8,64.6,28.7,65.4z M43.2,65.4c0.9-0.9,1.3-2.1,1.3-3.7c0-1.6-0.4-2.7-1.3-3.6c-0.9-0.8-2.2-1.3-4.2-1.6v10.5
			C41,66.8,42.4,66.3,43.2,65.4z"/>
		<path class="st1" d="M74.7,63.6H60.1c0.3,1,0.9,1.8,1.7,2.4s1.9,0.8,3.2,0.8c1,0,1.8-0.1,2.5-0.4c0.7-0.3,1.4-0.7,2.1-1.3l3.7,3.8
			c-1.9,2.2-4.8,3.3-8.5,3.3c-2.3,0-4.4-0.4-6.2-1.3c-1.8-0.9-3.1-2.1-4.1-3.7c-1-1.6-1.5-3.4-1.5-5.4c0-2,0.5-3.7,1.4-5.3
			c0.9-1.6,2.3-2.8,3.9-3.7c1.7-0.9,3.6-1.3,5.7-1.3c2,0,3.8,0.4,5.4,1.2c1.6,0.8,2.9,2,3.9,3.6c0.9,1.6,1.4,3.4,1.4,5.6
			C74.8,61.9,74.7,62.5,74.7,63.6z M61.4,57.4c-0.7,0.6-1.2,1.5-1.4,2.5h8.2c-0.2-1.1-0.7-1.9-1.4-2.5c-0.7-0.6-1.6-0.9-2.7-0.9
			C63,56.4,62.1,56.7,61.4,57.4z"/>
		<path class="st1" d="M82.6,70.8c-1.8-0.9-3.1-2.1-4.1-3.7c-1-1.6-1.5-3.4-1.5-5.4c0-2,0.5-3.8,1.5-5.3c1-1.6,2.3-2.8,4.1-3.7
			c1.7-0.9,3.7-1.3,6-1.3c2.3,0,4.2,0.5,5.9,1.5c1.7,1,2.8,2.3,3.5,4l-5.4,2.8c-0.9-1.8-2.2-2.7-4-2.7c-1.3,0-2.3,0.4-3.1,1.3
			c-0.8,0.8-1.2,2-1.2,3.5c0,1.5,0.4,2.7,1.2,3.5c0.8,0.9,1.9,1.3,3.1,1.3c1.8,0,3.1-0.9,4-2.7l5.4,2.8c-0.7,1.7-1.9,3.1-3.5,4
			c-1.7,1-3.6,1.5-5.9,1.5C86.3,72.1,84.3,71.7,82.6,70.8z"/>
		<path class="st1" d="M118.8,57.4h-6.4v14.5h-7V57.4h-6.5v-5.6h19.9V57.4z"/>
		<path class="st1" d="M121.5,51.8h7v10.5l8.4-10.5h6.5v20h-7V61.3l-8.3,10.5h-6.5V51.8z"/>
		<path class="st1" d="M167.7,66c0,1.8-0.7,3.2-2.1,4.2c-1.4,1-3.5,1.5-6.2,1.5h-11.3v-20h10.8c2.6,0,4.6,0.5,6.1,1.4
			c1.4,0.9,2.2,2.2,2.2,3.8c0,1-0.2,1.8-0.7,2.6s-1.2,1.3-2.1,1.8C166.6,62.1,167.7,63.7,167.7,66z M154.4,59.8h3.8
			c1.6,0,2.4-0.6,2.4-1.8c0-1.2-0.8-1.7-2.4-1.7h-3.8V59.8z M161.3,65.4c0-1.2-0.8-1.8-2.5-1.8h-4.4v3.7h4.4
			C160.5,67.3,161.3,66.6,161.3,65.4z"/>
		<path class="st1" d="M187.1,53.7c1.7,1.5,2.6,3.8,2.6,7v11.1h-6.5v-2.6c-1,1.9-3,2.9-5.9,2.9c-1.6,0-2.9-0.3-4-0.8
			c-1.1-0.5-2-1.3-2.6-2.2c-0.6-0.9-0.9-2-0.9-3.2c0-1.9,0.7-3.4,2.2-4.4c1.5-1,3.7-1.6,6.7-1.6h4c-0.1-2.1-1.5-3.2-4.3-3.2
			c-1,0-1.9,0.2-2.9,0.5c-1,0.3-1.8,0.7-2.5,1.3l-2.4-4.8c1.1-0.7,2.5-1.3,4-1.7c1.6-0.4,3.2-0.6,4.8-0.6
			C182.8,51.4,185.3,52.2,187.1,53.7z M181.3,67.1c0.6-0.4,1.1-1,1.3-1.7v-1.7h-3c-2,0-3.1,0.7-3.1,2c0,0.6,0.2,1.1,0.7,1.5
			c0.5,0.4,1.1,0.6,1.9,0.6C180,67.7,180.7,67.5,181.3,67.1z"/>
		<path class="st1" d="M214.3,51.8v20h-7V57.4h-5.1l-0.1,3.1c-0.1,2.6-0.4,4.8-0.8,6.5c-0.4,1.7-1.1,3-2.1,4c-1,0.9-2.3,1.4-4,1.4
			c-0.9,0-2-0.2-3.4-0.5l0.3-5.7c0.4,0,0.7,0.1,0.9,0.1c0.8,0,1.3-0.2,1.7-0.7c0.4-0.5,0.7-1.2,0.8-2c0.1-0.8,0.2-1.9,0.3-3.3
			l0.3-8.4H214.3z"/>
		<path class="st1" d="M236.9,59.8c1.4,1.2,2.1,2.8,2.1,5c0,2.2-0.8,4-2.4,5.2c-1.6,1.3-3.8,1.9-6.7,1.9h-10.9v-20h7V58h4.8
			C233.5,58,235.5,58.6,236.9,59.8z M231.9,64.6c0-0.8-0.2-1.4-0.7-1.7c-0.4-0.4-1.1-0.6-2-0.6H226V67l3.2,0
			C231,67,231.9,66.2,231.9,64.6z"/>
		<path class="st2" d="M253,45.9h7.3V66h12.4v5.8H253V45.9z"/>
		<path class="st2" d="M291.7,53.7c1.7,1.5,2.6,3.8,2.6,7v11.1h-6.5v-2.6c-1,1.9-3,2.9-5.9,2.9c-1.6,0-2.9-0.3-4-0.8
			c-1.1-0.5-2-1.3-2.6-2.2c-0.6-0.9-0.9-2-0.9-3.2c0-1.9,0.7-3.4,2.2-4.4c1.5-1,3.7-1.6,6.7-1.6h4c-0.1-2.1-1.5-3.2-4.3-3.2
			c-1,0-1.9,0.2-2.9,0.5c-1,0.3-1.8,0.7-2.5,1.3l-2.4-4.8c1.1-0.7,2.5-1.3,4-1.7c1.6-0.4,3.2-0.6,4.8-0.6
			C287.4,51.4,289.9,52.2,291.7,53.7z M285.9,67.1c0.6-0.4,1.1-1,1.3-1.7v-1.7h-3c-2,0-3.1,0.7-3.1,2c0,0.6,0.2,1.1,0.7,1.5
			c0.5,0.4,1.1,0.6,1.9,0.6S285.3,67.5,285.9,67.1z"/>
		<path class="st2" d="M320.3,44.4v27.4h-6.7v-2c-1.3,1.6-3.3,2.3-5.9,2.3c-1.8,0-3.5-0.4-5-1.3c-1.5-0.9-2.7-2.1-3.6-3.6
			c-0.9-1.6-1.3-3.4-1.3-5.5c0-2.1,0.4-3.9,1.3-5.5c0.9-1.6,2.1-2.8,3.6-3.6c1.5-0.8,3.2-1.3,5-1.3c2.4,0,4.2,0.7,5.5,2.1v-9.1
			H320.3z M312.2,65.3c0.8-0.9,1.2-2,1.2-3.5c0-1.5-0.4-2.6-1.2-3.5c-0.8-0.8-1.8-1.3-3-1.3c-1.2,0-2.2,0.4-3,1.3
			c-0.8,0.8-1.2,2-1.2,3.5c0,1.5,0.4,2.7,1.2,3.5c0.8,0.9,1.8,1.3,3,1.3C310.4,66.6,311.4,66.1,312.2,65.3z"/>
		<path class="st2" d="M329.1,70.8c-1.7-0.9-3.1-2.1-4-3.7c-1-1.6-1.5-3.4-1.5-5.4c0-2,0.5-3.7,1.5-5.3c1-1.6,2.3-2.8,4-3.7
			c1.7-0.9,3.7-1.3,5.8-1.3s4.1,0.4,5.8,1.3c1.7,0.9,3.1,2.1,4,3.7c1,1.6,1.4,3.3,1.4,5.3c0,2-0.5,3.8-1.4,5.4c-1,1.6-2.3,2.8-4,3.7
			c-1.7,0.9-3.7,1.3-5.8,1.3C332.8,72.1,330.8,71.7,329.1,70.8z M337.9,65.3c0.8-0.9,1.2-2,1.2-3.5c0-1.5-0.4-2.6-1.2-3.5
			c-0.8-0.8-1.8-1.3-3-1.3c-1.2,0-2.2,0.4-3,1.3c-0.8,0.8-1.2,2-1.2,3.5c0,1.5,0.4,2.7,1.2,3.5c0.8,0.9,1.8,1.3,3,1.3
			C336.1,66.6,337.1,66.1,337.9,65.3z"/>
		<path class="st2" d="M371,51.8v16.4c0,3.7-1,6.5-3,8.4c-2,1.9-4.9,2.8-8.7,2.8c-2,0-3.8-0.2-5.5-0.7c-1.7-0.4-3.2-1.1-4.4-2
			l2.6-4.9c0.8,0.7,1.8,1.2,3.1,1.6c1.2,0.4,2.5,0.6,3.7,0.6c1.8,0,3.2-0.4,4.1-1.2c0.9-0.8,1.3-2,1.3-3.6v-0.7
			c-1.4,1.6-3.3,2.4-6,2.4c-1.8,0-3.4-0.4-4.9-1.2c-1.5-0.8-2.7-1.9-3.6-3.4c-0.9-1.5-1.3-3.2-1.3-5.1c0-1.9,0.4-3.6,1.3-5
			c0.9-1.5,2.1-2.6,3.6-3.4c1.5-0.8,3.1-1.2,4.9-1.2c2.9,0,5,0.9,6.3,2.8v-2.4H371z M362.8,64c0.8-0.8,1.2-1.8,1.2-3
			c0-1.2-0.4-2.2-1.2-2.9c-0.8-0.8-1.9-1.1-3.1-1.1c-1.3,0-2.3,0.4-3.2,1.1c-0.8,0.8-1.2,1.7-1.2,2.9c0,1.2,0.4,2.2,1.3,3
			c0.8,0.8,1.9,1.1,3.1,1.1C361,65.2,362,64.8,362.8,64z"/>
		<path class="st2" d="M391.7,53.7c1.7,1.5,2.6,3.8,2.6,7v11.1h-6.5v-2.6c-1,1.9-3,2.9-5.9,2.9c-1.6,0-2.9-0.3-4-0.8
			c-1.1-0.5-2-1.3-2.6-2.2c-0.6-0.9-0.9-2-0.9-3.2c0-1.9,0.7-3.4,2.2-4.4c1.5-1,3.7-1.6,6.7-1.6h4c-0.1-2.1-1.5-3.2-4.3-3.2
			c-1,0-1.9,0.2-2.9,0.5c-1,0.3-1.8,0.7-2.5,1.3l-2.4-4.8c1.1-0.7,2.5-1.3,4-1.7c1.6-0.4,3.2-0.6,4.8-0.6
			C387.4,51.4,389.9,52.2,391.7,53.7z M386,67.1c0.6-0.4,1.1-1,1.3-1.7v-1.7h-3c-2,0-3.1,0.7-3.1,2c0,0.6,0.2,1.1,0.7,1.5
			c0.5,0.4,1.1,0.6,1.9,0.6C384.6,67.7,385.3,67.5,386,67.1z"/>
		<path class="st2" d="M415.4,51.7h-8v-5.8h23.2v5.8h-7.9v20.1h-7.3V51.7z"/>
		<path class="st2" d="M442.1,52.1c1.1-0.5,2.5-0.7,3.9-0.7v6.3c-0.6-0.1-1.2-0.1-1.6-0.1c-1.5,0-2.7,0.4-3.5,1.2
			c-0.9,0.8-1.3,2.1-1.3,3.7v9.2h-7v-20h6.7v2.4C440,53.3,440.9,52.6,442.1,52.1z"/>
		<path class="st2" d="M453,70.8c-1.7-0.9-3.1-2.1-4-3.7c-1-1.6-1.5-3.4-1.5-5.4c0-2,0.5-3.7,1.5-5.3c1-1.6,2.3-2.8,4-3.7
			c1.7-0.9,3.7-1.3,5.8-1.3s4.1,0.4,5.8,1.3c1.7,0.9,3.1,2.1,4,3.7c1,1.6,1.4,3.3,1.4,5.3c0,2-0.5,3.8-1.4,5.4c-1,1.6-2.3,2.8-4,3.7
			c-1.7,0.9-3.7,1.3-5.8,1.3C456.6,72.1,454.7,71.7,453,70.8z M461.8,65.3c0.8-0.9,1.2-2,1.2-3.5c0-1.5-0.4-2.6-1.2-3.5
			c-0.8-0.8-1.8-1.3-3-1.3s-2.2,0.4-3,1.3c-0.8,0.8-1.2,2-1.2,3.5c0,1.5,0.4,2.7,1.2,3.5c0.8,0.9,1.8,1.3,3,1.3S461,66.1,461.8,65.3
			z"/>
		<path class="st2" d="M490.9,52.7c1.5,0.9,2.7,2.1,3.6,3.6c0.9,1.6,1.3,3.4,1.3,5.5c0,2.1-0.4,3.9-1.3,5.5
			c-0.9,1.6-2.1,2.8-3.6,3.6c-1.5,0.8-3.2,1.3-5,1.3c-2.3,0-4.2-0.7-5.6-2.1V79h-7V51.8h6.7v2c1.3-1.6,3.3-2.3,5.9-2.3
			C487.8,51.4,489.4,51.9,490.9,52.7z M487.5,65.3c0.8-0.9,1.2-2,1.2-3.5c0-1.5-0.4-2.6-1.2-3.5c-0.8-0.9-1.8-1.3-3-1.3
			c-1.2,0-2.2,0.4-3,1.3c-0.8,0.9-1.2,2-1.2,3.5c0,1.5,0.4,2.6,1.2,3.5c0.8,0.9,1.8,1.3,3,1.3C485.7,66.6,486.7,66.1,487.5,65.3z"/>
		<path class="st2" d="M518.1,53.7c1.5,1.5,2.3,3.7,2.3,6.7v11.5h-7V61.5c0-2.7-1.1-4.1-3.3-4.1c-1.2,0-2.2,0.4-2.9,1.2
			c-0.7,0.8-1.1,2-1.1,3.5v9.7h-7V44.4h7v9.2c0.8-0.7,1.7-1.3,2.7-1.6c1-0.4,2.1-0.6,3.3-0.6C514.6,51.4,516.6,52.2,518.1,53.7z"/>
		<path class="st2" d="M545.5,51.8l-8.7,20.9c-1,2.5-2.2,4.2-3.7,5.2c-1.5,1-3.2,1.5-5.3,1.5c-1.1,0-2.1-0.2-3.2-0.5
			c-1.1-0.3-1.9-0.8-2.6-1.3l2.4-4.9c0.4,0.4,0.9,0.7,1.4,0.9c0.6,0.2,1.1,0.3,1.7,0.3c0.7,0,1.2-0.1,1.6-0.4
			c0.4-0.3,0.8-0.7,1.1-1.3l-8.6-20.3h7.2l4.9,12.2l5-12.2H545.5z"/>
		<path class="st1" d="M558.4,44.4h6.4V79h-6.4V44.4z"/>
	</g>
</g>
</svg>
